<svg width="3604" height="1990" xmlns="http://www.w3.org/2000/svg" xmlns:xlink="http://www.w3.org/1999/xlink" overflow="hidden"><defs><clipPath id="clip0"><rect x="-2433" y="1115" width="3604" height="1990"/></clipPath></defs><g clip-path="url(#clip0)" transform="translate(2433 -1115)"><path d="M-1331.49 2429.98C-1295.23 2429.98-1263.7 2450.25-1247.53 2480.12L-1247.44 2480.31-1247.01 2480.93-1246.72 2481.81-1243.51 2488.49-1242.4 2491.54-1263.16 2499.73C-1312.35 2517.74-1364.37 2529.91-1418.36 2535.39L-1426.41 2536-1426.48 2535.58C-1426.8 2532.36-1426.97 2529.09-1426.97 2525.79-1426.97 2472.87-1384.22 2429.98-1331.49 2429.98ZM-999.087 2244.36C-985.39 2244.66-971.902 2247.94-959.609 2253.92L-953.348 2258.2-988.289 2304.92-988.311 2304.95C-1001.4 2320.81-1015.24 2336.03-1029.78 2350.56L-1029.78 2350.57-1078.87 2391.07-1083.08 2386.3C-1109.22 2341.04-1093.71 2283.16-1048.44 2257.03-1037.12 2250.49-1025.02 2246.56-1012.82 2245.05-1008.24 2244.48-1003.65 2244.25-999.087 2244.36ZM-1676.36 2207.05C-1644.4 2207.76-1613.57 2224.65-1596.42 2254.36-1570.29 2299.62-1585.8 2357.49-1631.06 2383.63-1676.33 2409.76-1734.22 2394.25-1760.35 2348.99-1786.49 2303.73-1770.98 2245.85-1725.71 2219.72-1714.39 2213.18-1702.29 2209.25-1690.09 2207.74-1685.51 2207.17-1680.92 2206.94-1676.36 2207.05ZM-1348.49 2017.78C-1316.54 2018.5-1285.71 2035.39-1268.56 2065.09-1242.42 2110.35-1257.93 2168.23-1303.2 2194.36-1348.47 2220.49-1406.35 2204.99-1432.49 2159.72-1458.63 2114.46-1443.12 2056.58-1397.85 2030.45-1386.53 2023.92-1374.43 2019.99-1362.22 2018.47-1357.65 2017.91-1353.06 2017.68-1348.49 2017.78ZM-2026.76 1979.21C-1974.02 1979.21-1931.27 2022.11-1931.27 2075.02-1931.27 2127.93-1974.02 2170.82-2026.76 2170.82-2039.94 2170.82-2052.5 2168.14-2063.92 2163.3L-2069.59 2160.55-2076 2146.38C-2088.19 2117.57-2098.34 2087.67-2106.26 2056.89L-2112 2032.03-2110.72 2029.35C-2094.55 1999.49-2063.01 1979.21-2026.76 1979.21ZM-1020.63 1828.51C-988.672 1829.23-957.848 1846.12-940.696 1875.82-914.56 1921.09-930.07 1978.96-975.339 2005.09-1020.61 2031.23-1078.49 2015.72-1104.63 1970.46-1130.76 1925.19-1115.25 1867.32-1069.98 1841.19-1058.67 1834.65-1046.56 1830.72-1034.36 1829.21-1029.79 1828.64-1025.2 1828.41-1020.63 1828.51ZM-1697.9 1791.2C-1665.94 1791.92-1635.12 1808.81-1617.97 1838.51-1591.83 1883.78-1607.34 1941.65-1652.61 1967.78-1697.88 1993.92-1755.76 1978.41-1781.9 1933.15-1808.03 1887.88-1792.52 1830.01-1747.25 1803.88-1735.94 1797.34-1723.83 1793.41-1711.63 1791.9-1707.05 1791.33-1702.47 1791.1-1697.9 1791.2ZM-1370.04 1601.94C-1338.08 1602.66-1307.25 1619.54-1290.1 1649.25-1263.97 1694.51-1279.48 1752.39-1324.75 1778.52-1370.01 1804.65-1427.9 1789.14-1454.03 1743.88-1480.17 1698.62-1464.66 1640.74-1419.39 1614.61-1408.07 1608.08-1395.97 1604.15-1383.77 1602.63-1379.19 1602.06-1374.6 1601.84-1370.04 1601.94ZM-2034.63 1565.27-2030.43 1565.92C-1986.92 1574.85-1954.19 1613.48-1954.19 1659.78-1954.19 1712.69-1996.94 1755.58-2049.67 1755.58-2069.45 1755.58-2087.82 1749.55-2103.06 1739.22L-2106.46 1736.67-2106.26 1735.82C-2093.06 1684.51-2073.67 1635.68-2048.95 1590.17ZM-1059.43 1414.52-1052.09 1420.87C-1021.66 1448.52-993.904 1479.05-969.239 1512.02L-952.74 1535.22-953.328 1537.52C-965.417 1576.52-1001.67 1604.83-1044.52 1604.83-1097.25 1604.83-1140 1561.94-1140 1509.03-1140 1485.88-1131.82 1464.64-1118.2 1448.08L-1114.9 1444.45-1113.78 1443.1-1112.94 1442.28-1112.03 1441.28-1110.38 1439.77-1107.09 1436.54C-1102.38 1432.37-1097.19 1428.61-1091.53 1425.34L-1090.24 1424.91-1090.03 1424.78C-1083.27 1421.09-1076.01 1418.2-1068.38 1416.23ZM-1719.45 1375.36C-1687.49 1376.08-1656.66 1392.97-1639.51 1422.67-1613.37 1467.93-1628.88 1525.81-1674.15 1551.94-1719.42 1578.08-1777.3 1562.57-1803.44 1517.3-1829.58 1472.04-1814.07 1414.17-1768.8 1388.03-1757.48 1381.5-1745.38 1377.57-1733.17 1376.06-1728.6 1375.49-1724.01 1375.26-1719.45 1375.36ZM-1484.05 1254C-1428.61 1254-1374.81 1261.02-1323.49 1274.22L-1298.4 1281.35-1298.82 1289.68C-1303.71 1337.99-1344.37 1375.69-1393.81 1375.69-1446.54 1375.69-1489.29 1332.79-1489.29 1279.88-1489.29 1273.27-1488.62 1266.81-1487.35 1260.57L-1485.68 1254.04Z" stroke="#000000" stroke-width="10.3333" stroke-miterlimit="8" fill="#CBD1D9" fill-rule="evenodd"/><path d="M631.511 2429.98C667.766 2429.98 699.301 2450.25 715.47 2480.12L715.562 2480.31 715.985 2480.93 716.279 2481.81 719.49 2488.49 720.602 2491.54 699.844 2499.73C650.645 2517.74 598.63 2529.91 544.637 2535.39L536.585 2536 536.522 2535.58C536.196 2532.36 536.029 2529.09 536.029 2525.79 536.029 2472.87 578.778 2429.98 631.511 2429.98ZM963.913 2244.36C977.61 2244.66 991.098 2247.94 1003.39 2253.92L1009.65 2258.2 974.711 2304.92 974.689 2304.95C961.597 2320.81 947.757 2336.03 933.225 2350.56L933.217 2350.57 884.126 2391.07 879.917 2386.3C853.781 2341.04 869.291 2283.16 914.559 2257.03 925.876 2250.49 937.982 2246.56 950.183 2245.05 954.759 2244.48 959.347 2244.25 963.913 2244.36ZM286.644 2207.05C318.603 2207.76 349.427 2224.65 366.578 2254.36 392.714 2299.62 377.204 2357.49 331.936 2383.63 286.668 2409.76 228.784 2394.25 202.648 2348.99 176.512 2303.73 192.022 2245.85 237.29 2219.72 248.607 2213.18 260.713 2209.25 272.914 2207.74 277.489 2207.17 282.078 2206.94 286.644 2207.05ZM614.505 2017.78C646.465 2018.5 677.289 2035.39 694.441 2065.09 720.577 2110.35 705.067 2168.23 659.798 2194.36 614.53 2220.49 556.646 2204.99 530.51 2159.72 504.374 2114.46 519.884 2056.58 565.152 2030.45 576.47 2023.92 588.575 2019.99 600.776 2018.47 605.351 2017.91 609.94 2017.68 614.505 2017.78ZM-63.7573 1979.21C-11.0237 1979.21 31.7253 2022.11 31.7253 2075.02 31.7253 2127.93-11.0237 2170.82-63.7573 2170.82-76.9406 2170.82-89.5 2168.14-100.923 2163.3L-106.594 2160.55-113.001 2146.38C-125.192 2117.57-135.34 2087.67-143.262 2056.89L-149 2032.03-147.716 2029.35C-131.547 1999.49-100.012 1979.21-63.7573 1979.21ZM942.369 1828.51C974.328 1829.23 1005.15 1846.12 1022.3 1875.82 1048.44 1921.09 1032.93 1978.96 987.661 2005.09 942.392 2031.23 884.508 2015.72 858.372 1970.46 832.237 1925.19 847.747 1867.32 893.015 1841.19 904.333 1834.65 916.438 1830.72 928.639 1829.21 933.214 1828.64 937.803 1828.41 942.369 1828.51ZM265.1 1791.2C297.059 1791.92 327.883 1808.81 345.035 1838.51 371.171 1883.78 355.661 1941.65 310.392 1967.78 265.123 1993.92 207.239 1978.41 181.103 1933.15 154.967 1887.88 170.477 1830.01 215.746 1803.88 227.064 1797.34 239.169 1793.41 251.37 1791.9 255.945 1791.33 260.534 1791.1 265.1 1791.2ZM592.962 1601.94C624.922 1602.66 655.746 1619.54 672.897 1649.25 699.033 1694.51 683.523 1752.39 638.255 1778.52 592.987 1804.65 535.102 1789.14 508.967 1743.88 482.831 1698.62 498.341 1640.74 543.609 1614.61 554.926 1608.08 567.032 1604.15 579.233 1602.63 583.808 1602.06 588.397 1601.84 592.962 1601.94ZM-71.632 1565.27-67.4279 1565.92C-23.9182 1574.85 8.81148 1613.48 8.81148 1659.78 8.81148 1712.69-33.9375 1755.58-86.6709 1755.58-106.446 1755.58-124.817 1749.55-140.056 1739.22L-143.458 1736.67-143.262 1735.82C-130.058 1684.51-110.673 1635.68-85.9484 1590.17ZM903.575 1414.52 910.913 1420.87C941.337 1448.52 969.096 1479.05 993.761 1512.02L1010.26 1535.22 1009.67 1537.52C997.583 1576.52 961.329 1604.83 918.483 1604.83 865.749 1604.83 823 1561.94 823 1509.03 823 1485.88 831.183 1464.64 844.804 1448.08L848.096 1444.45 849.225 1443.1 850.061 1442.28 850.966 1441.28 852.624 1439.77 855.914 1436.54C860.619 1432.37 865.813 1428.61 871.471 1425.34L872.759 1424.91 872.97 1424.78C879.735 1421.09 886.993 1418.2 894.62 1416.23ZM243.555 1375.36C275.514 1376.08 306.339 1392.97 323.491 1422.67 349.627 1467.93 334.116 1525.81 288.848 1551.94 243.58 1578.08 185.695 1562.57 159.56 1517.3 133.424 1472.04 148.934 1414.17 194.202 1388.03 205.519 1381.5 217.625 1377.57 229.825 1376.06 234.401 1375.49 238.989 1375.26 243.555 1375.36ZM478.952 1254C534.391 1254 588.189 1261.02 639.507 1274.22L664.6 1281.35 664.181 1289.68C659.292 1337.99 618.629 1375.69 569.192 1375.69 516.458 1375.69 473.709 1332.79 473.709 1279.88 473.709 1273.27 474.377 1266.81 475.649 1260.57L477.323 1254.04Z" stroke="#000000" stroke-width="10.3333" stroke-miterlimit="8" fill="#CBD1D9" fill-rule="evenodd"/><path d="M-2126 1896.5C-2126 1541.66-1838.34 1254-1483.5 1254-1128.66 1254-841 1541.66-841 1896.5-841 2251.34-1128.66 2539-1483.5 2539-1838.34 2539-2126 2251.34-2126 1896.5Z" stroke="#000000" stroke-width="10.3333" stroke-miterlimit="8" fill="none" fill-rule="evenodd"/><path d="M-2270 1861.83-2007.13 1861.83-2007.13 1872.17-2270 1872.17ZM-2012.3 1851.5-1960.63 1867-2012.3 1882.5Z"/><path d="M-1958 1867.5C-1958 1824.15-1923.08 1789-1880 1789-1836.92 1789-1802 1824.15-1802 1867.5-1802 1910.85-1836.92 1946-1880 1946-1923.08 1946-1958 1910.85-1958 1867.5Z" stroke="#000000" stroke-width="10.3333" stroke-miterlimit="8" stroke-dasharray="31 10.3333" fill="#F78D8F" fill-rule="evenodd"/><path d="M-2382 1867.5C-2382 1824.15-2347.08 1789-2304 1789-2260.92 1789-2226 1824.15-2226 1867.5-2226 1910.85-2260.92 1946-2304 1946-2347.08 1946-2382 1910.85-2382 1867.5Z" stroke="#000000" stroke-width="10.3333" stroke-miterlimit="8" fill="#E81F7B" fill-rule="evenodd"/><path d="M-2270 2253.83-1976.12 2253.83-1976.12 2264.17-2270 2264.17ZM-1981.29 2243.5-1929.62 2259-1981.29 2274.5Z"/><path d="M-1932 2259C-1932 2215.92-1896.85 2181-1853.5 2181-1810.15 2181-1775 2215.92-1775 2259-1775 2302.08-1810.15 2337-1853.5 2337-1896.85 2337-1932 2302.08-1932 2259Z" stroke="#000000" stroke-width="10.3333" stroke-miterlimit="8" stroke-dasharray="31 10.3333" fill="#F78D8F" fill-rule="evenodd"/><path d="M-2382 2259C-2382 2215.92-2347.08 2181-2304 2181-2260.92 2181-2226 2215.92-2226 2259-2226 2302.08-2260.92 2337-2304 2337-2347.08 2337-2382 2302.08-2382 2259Z" stroke="#000000" stroke-width="10.3333" stroke-miterlimit="8" fill="#E81F7B" fill-rule="evenodd"/><path d="M-163 1896.5C-163 1541.66 124.657 1254 479.5 1254 834.343 1254 1122 1541.66 1122 1896.5 1122 2251.34 834.343 2539 479.5 2539 124.657 2539-163 2251.34-163 1896.5Z" stroke="#000000" stroke-width="10.3333" stroke-miterlimit="8" fill="none" fill-rule="evenodd"/><path d="M195 1718C195 1679.34 226.34 1648 265 1648 303.66 1648 335 1679.34 335 1718 335 1756.66 303.66 1788 265 1788 226.34 1788 195 1756.66 195 1718Z" stroke="#000000" stroke-width="10.3333" stroke-miterlimit="8" stroke-dasharray="31 10.3333" fill="#F78D8F" fill-rule="evenodd"/><path d="M219 2138.5C219 2099.56 250.34 2068 289 2068 327.66 2068 359 2099.56 359 2138.5 359 2177.44 327.66 2209 289 2209 250.34 2209 219 2177.44 219 2138.5Z" stroke="#000000" stroke-width="10.3333" stroke-miterlimit="8" stroke-dasharray="31 10.3333" fill="#F78D8F" fill-rule="evenodd"/><path d="M-299.082 1839.83-81.269 1836.4-70.5202 1835.96-60.4332 1834.98-50.8384 1833.52-41.6269 1831.57-32.874 1829.14-24.3628 1826.34-16.2007 1823.13-8.29263 1819.59 6.96939 1811.55 21.4641 1802.55 35.6496 1792.86 49.7122 1782.63 64.0301 1772.25 78.8641 1761.94 94.4079 1752.02 110.991 1742.8 119.868 1738.48 129.082 1734.5 138.591 1730.86 147.233 1728.62 149.784 1738.64 142.284 1740.51 133.168 1744 124.382 1747.77 116.009 1751.83 99.967 1760.73 84.7609 1770.43 70.0948 1780.62 55.7878 1790.99 41.4754 1801.39 26.9108 1811.33 11.7806 1820.7-4.0824 1829.03-12.4244 1832.75-21.1372 1836.16-30.126 1839.11-39.4981 1841.68-49.2866 1843.73-59.4418 1845.27-70.1048 1846.29-81.106 1846.73-298.918 1850.17ZM140.243 1719.54 194 1724 146.664 1749.87Z"/><path d="M-401 1846.5C-401 1807.56-369.66 1776-331 1776-292.34 1776-261 1807.56-261 1846.5-261 1885.44-292.34 1917-331 1917-369.66 1917-401 1885.44-401 1846.5Z" stroke="#000000" stroke-width="10.3333" stroke-miterlimit="8" fill="#E81F7B" fill-rule="evenodd"/><path d="M-269.16 2286.84-37.0349 2279.65-29.7841 2279.16-22.9678 2277.91-16.079 2275.96-9.11768 2273.35-2.08749 2270.11 4.97418 2266.27 12.2004 2261.89 19.3757 2257.08 26.6382 2251.77 33.9648 2246.1 48.8174 2233.72 63.8364 2220.5 79.1105 2206.78 94.6953 2192.95 110.671 2179.49 126.95 2166.8 135.3 2160.8 143.774 2155.19 152.404 2150.01 161.093 2145.27C161.338 2145.14 161.593 2145.03 161.856 2144.94L170.328 2141.97 173.741 2151.72 165.269 2154.69 166.032 2154.35 157.721 2158.87 149.476 2163.81 141.325 2169.2 133.3 2174.95 117.329 2187.39 101.555 2200.68 86.0145 2214.47 70.6636 2228.25 55.4326 2241.66 40.2851 2254.28 32.7368 2260.11 25.1243 2265.67 17.5496 2270.73 9.90076 2275.35 2.21246 2279.51-5.50739 2283.03-13.296 2285.91-21.1573 2288.09-29.091 2289.47-36.7151 2289.98-268.84 2297.16ZM163.089 2133.17 217 2135 170.987 2163.15Z"/><path d="M-401 2289C-401 2250.34-369.66 2219-331 2219-292.34 2219-261 2250.34-261 2289-261 2327.66-292.34 2359-331 2359-369.66 2359-401 2327.66-401 2289Z" stroke="#000000" stroke-width="10.3333" stroke-miterlimit="8" fill="#E81F7B" fill-rule="evenodd"/><text font-family="Open Sans,Open Sans_MSFontService,sans-serif" font-weight="600" font-size="128" transform="translate(112.803 2719)">Interception<tspan font-style="italic" font-weight="300" font-size="128" x="-11.6667" y="153">Large particles</tspan><tspan font-size="128" x="-1944.63" y="0">Impaction</tspan><tspan font-style="italic" font-weight="300" font-size="128" x="-2070.29" y="153">Largest particles</tspan></text></g></svg>