<svg width="3604" height="1990" viewBox="0 0 3604 1990" xmlns="http://www.w3.org/2000/svg" xmlns:xlink="http://www.w3.org/1999/xlink" overflow="hidden"><defs><clipPath id="clip0"><rect x="1444" y="1115" width="3604" height="1990"/></clipPath></defs><g clip-path="url(#clip0)" transform="translate(-1444 -1115)"><path d="M2530.51 2429.98C2566.77 2429.98 2598.3 2450.25 2614.47 2480.12L2614.56 2480.31 2614.99 2480.93 2615.28 2481.81 2618.49 2488.49 2619.6 2491.54 2598.84 2499.73C2549.65 2517.74 2497.63 2529.91 2443.64 2535.39L2435.59 2536 2435.52 2535.58C2435.2 2532.36 2435.03 2529.09 2435.03 2525.79 2435.03 2472.87 2477.78 2429.98 2530.51 2429.98ZM2862.91 2244.36C2876.61 2244.66 2890.1 2247.94 2902.39 2253.92L2908.65 2258.2 2873.71 2304.92 2873.69 2304.95C2860.6 2320.81 2846.76 2336.03 2832.22 2350.56L2832.22 2350.57 2783.13 2391.07 2778.92 2386.3C2752.78 2341.04 2768.29 2283.16 2813.56 2257.03 2824.88 2250.49 2836.98 2246.56 2849.18 2245.05 2853.76 2244.48 2858.35 2244.25 2862.91 2244.36ZM2185.64 2207.05C2217.6 2207.76 2248.43 2224.65 2265.58 2254.36 2291.71 2299.62 2276.2 2357.49 2230.94 2383.63 2185.67 2409.76 2127.78 2394.25 2101.65 2348.99 2075.51 2303.73 2091.02 2245.85 2136.29 2219.72 2147.61 2213.18 2159.71 2209.25 2171.91 2207.74 2176.49 2207.17 2181.08 2206.94 2185.64 2207.05ZM2513.51 2017.78C2545.46 2018.5 2576.29 2035.39 2593.44 2065.09 2619.58 2110.35 2604.07 2168.23 2558.8 2194.36 2513.53 2220.49 2455.65 2204.99 2429.51 2159.72 2403.37 2114.46 2418.88 2056.58 2464.15 2030.45 2475.47 2023.92 2487.57 2019.99 2499.78 2018.47 2504.35 2017.91 2508.94 2017.68 2513.51 2017.78ZM1835.24 1979.21C1887.98 1979.21 1930.73 2022.11 1930.73 2075.02 1930.73 2127.93 1887.98 2170.82 1835.24 2170.82 1822.06 2170.82 1809.5 2168.14 1798.08 2163.3L1792.41 2160.55 1786 2146.38C1773.81 2117.57 1763.66 2087.67 1755.74 2056.89L1750 2032.03 1751.28 2029.35C1767.45 1999.49 1798.99 1979.21 1835.24 1979.21ZM2841.37 1828.51C2873.33 1829.23 2904.15 1846.12 2921.3 1875.82 2947.44 1921.09 2931.93 1978.96 2886.66 2005.09 2841.39 2031.23 2783.51 2015.72 2757.37 1970.46 2731.24 1925.19 2746.75 1867.32 2792.02 1841.19 2803.33 1834.65 2815.44 1830.72 2827.64 1829.21 2832.21 1828.64 2836.8 1828.41 2841.37 1828.51ZM2164.1 1791.2C2196.06 1791.92 2226.88 1808.81 2244.03 1838.51 2270.17 1883.78 2254.66 1941.65 2209.39 1967.78 2164.12 1993.92 2106.24 1978.41 2080.1 1933.15 2053.97 1887.88 2069.48 1830.01 2114.75 1803.88 2126.06 1797.34 2138.17 1793.41 2150.37 1791.9 2154.95 1791.33 2159.53 1791.1 2164.1 1791.2ZM2491.96 1601.94C2523.92 1602.66 2554.75 1619.54 2571.9 1649.25 2598.03 1694.51 2582.52 1752.39 2537.25 1778.52 2491.99 1804.65 2434.1 1789.14 2407.97 1743.88 2381.83 1698.62 2397.34 1640.74 2442.61 1614.61 2453.93 1608.08 2466.03 1604.15 2478.23 1602.63 2482.81 1602.06 2487.4 1601.84 2491.96 1601.94ZM1827.37 1565.27 1831.57 1565.92C1875.08 1574.85 1907.81 1613.48 1907.81 1659.78 1907.81 1712.69 1865.06 1755.58 1812.33 1755.58 1792.55 1755.58 1774.18 1749.55 1758.94 1739.22L1755.54 1736.67 1755.74 1735.82C1768.94 1684.51 1788.33 1635.68 1813.05 1590.17ZM2802.57 1414.52 2809.91 1420.87C2840.34 1448.52 2868.1 1479.05 2892.76 1512.02L2909.26 1535.22 2908.67 1537.52C2896.58 1576.52 2860.33 1604.83 2817.48 1604.83 2764.75 1604.83 2722 1561.94 2722 1509.03 2722 1485.88 2730.18 1464.64 2743.8 1448.08L2747.1 1444.45 2748.22 1443.1 2749.06 1442.28 2749.97 1441.28 2751.62 1439.77 2754.91 1436.54C2759.62 1432.37 2764.81 1428.61 2770.47 1425.34L2771.76 1424.91 2771.97 1424.78C2778.73 1421.09 2785.99 1418.2 2793.62 1416.23ZM2142.55 1375.36C2174.51 1376.08 2205.34 1392.97 2222.49 1422.67 2248.63 1467.93 2233.12 1525.81 2187.85 1551.94 2142.58 1578.08 2084.7 1562.57 2058.56 1517.3 2032.42 1472.04 2047.93 1414.17 2093.2 1388.03 2104.52 1381.5 2116.63 1377.57 2128.83 1376.06 2133.4 1375.49 2137.99 1375.26 2142.55 1375.36ZM2377.95 1254C2433.39 1254 2487.19 1261.02 2538.51 1274.22L2563.6 1281.35 2563.18 1289.68C2558.29 1337.99 2517.63 1375.69 2468.19 1375.69 2415.46 1375.69 2372.71 1332.79 2372.71 1279.88 2372.71 1273.27 2373.38 1266.81 2374.65 1260.57L2376.32 1254.04Z" stroke="#000000" stroke-width="10.3333" stroke-miterlimit="8" fill="#CBD1D9" fill-rule="evenodd"/><path d="M4392.51 2429.98C4428.77 2429.98 4460.3 2450.25 4476.47 2480.12L4476.56 2480.31 4476.99 2480.93 4477.28 2481.81 4480.49 2488.49 4481.6 2491.54 4460.84 2499.73C4411.65 2517.74 4359.63 2529.91 4305.64 2535.39L4297.58 2536 4297.52 2535.58C4297.2 2532.36 4297.03 2529.09 4297.03 2525.79 4297.03 2472.87 4339.78 2429.98 4392.51 2429.98ZM4724.91 2244.36C4738.61 2244.66 4752.1 2247.94 4764.39 2253.92L4770.65 2258.2 4735.71 2304.92 4735.69 2304.95C4722.6 2320.81 4708.76 2336.03 4694.22 2350.56L4694.22 2350.57 4645.13 2391.07 4640.92 2386.3C4614.78 2341.04 4630.29 2283.16 4675.56 2257.03 4686.88 2250.49 4698.98 2246.56 4711.18 2245.05 4715.76 2244.48 4720.35 2244.25 4724.91 2244.36ZM4047.64 2207.05C4079.6 2207.76 4110.43 2224.65 4127.58 2254.36 4153.71 2299.62 4138.2 2357.49 4092.94 2383.63 4047.67 2409.76 3989.78 2394.25 3963.65 2348.99 3937.51 2303.73 3953.02 2245.85 3998.29 2219.72 4009.61 2213.18 4021.71 2209.25 4033.91 2207.74 4038.49 2207.17 4043.08 2206.94 4047.64 2207.05ZM4375.51 2017.78C4407.46 2018.5 4438.29 2035.39 4455.44 2065.09 4481.58 2110.35 4466.07 2168.23 4420.8 2194.36 4375.53 2220.49 4317.65 2204.99 4291.51 2159.72 4265.37 2114.46 4280.88 2056.58 4326.15 2030.45 4337.47 2023.92 4349.57 2019.99 4361.78 2018.47 4366.35 2017.91 4370.94 2017.68 4375.51 2017.78ZM3697.24 1979.21C3749.98 1979.21 3792.73 2022.11 3792.73 2075.02 3792.73 2127.93 3749.98 2170.82 3697.24 2170.82 3684.06 2170.82 3671.5 2168.14 3660.08 2163.3L3654.41 2160.55 3648 2146.38C3635.81 2117.57 3625.66 2087.67 3617.74 2056.89L3612 2032.03 3613.28 2029.35C3629.45 1999.49 3660.99 1979.21 3697.24 1979.21ZM4703.37 1828.51C4735.33 1829.23 4766.15 1846.12 4783.3 1875.82 4809.44 1921.09 4793.93 1978.96 4748.66 2005.09 4703.39 2031.23 4645.51 2015.72 4619.37 1970.46 4593.24 1925.19 4608.75 1867.32 4654.02 1841.19 4665.33 1834.65 4677.44 1830.72 4689.64 1829.21 4694.21 1828.64 4698.8 1828.41 4703.37 1828.51ZM4026.1 1791.2C4058.06 1791.92 4088.88 1808.81 4106.03 1838.51 4132.17 1883.78 4116.66 1941.65 4071.39 1967.78 4026.12 1993.92 3968.24 1978.41 3942.1 1933.15 3915.97 1887.88 3931.48 1830.01 3976.75 1803.88 3988.06 1797.34 4000.17 1793.41 4012.37 1791.9 4016.95 1791.33 4021.53 1791.1 4026.1 1791.2ZM4353.96 1601.94C4385.92 1602.66 4416.75 1619.54 4433.9 1649.25 4460.03 1694.51 4444.52 1752.39 4399.25 1778.52 4353.99 1804.65 4296.1 1789.14 4269.97 1743.88 4243.83 1698.62 4259.34 1640.74 4304.61 1614.61 4315.93 1608.08 4328.03 1604.15 4340.23 1602.63 4344.81 1602.06 4349.4 1601.84 4353.96 1601.94ZM3689.37 1565.27 3693.57 1565.92C3737.08 1574.85 3769.81 1613.48 3769.81 1659.78 3769.81 1712.69 3727.06 1755.58 3674.33 1755.58 3654.55 1755.58 3636.18 1749.55 3620.94 1739.22L3617.54 1736.67 3617.74 1735.82C3630.94 1684.51 3650.33 1635.68 3675.05 1590.17ZM4664.57 1414.52 4671.91 1420.87C4702.34 1448.52 4730.1 1479.05 4754.76 1512.02L4771.26 1535.22 4770.67 1537.52C4758.58 1576.52 4722.33 1604.83 4679.48 1604.83 4626.75 1604.83 4584 1561.94 4584 1509.03 4584 1485.88 4592.18 1464.64 4605.8 1448.08L4609.1 1444.45 4610.22 1443.1 4611.06 1442.28 4611.97 1441.28 4613.62 1439.77 4616.91 1436.54C4621.62 1432.37 4626.81 1428.61 4632.47 1425.34L4633.76 1424.91 4633.97 1424.78C4640.73 1421.09 4647.99 1418.2 4655.62 1416.23ZM4004.55 1375.36C4036.51 1376.08 4067.34 1392.97 4084.49 1422.67 4110.63 1467.93 4095.12 1525.81 4049.85 1551.94 4004.58 1578.08 3946.7 1562.57 3920.56 1517.3 3894.42 1472.04 3909.93 1414.17 3955.2 1388.03 3966.52 1381.5 3978.63 1377.57 3990.83 1376.06 3995.4 1375.49 3999.99 1375.26 4004.55 1375.36ZM4239.95 1254C4295.39 1254 4349.19 1261.02 4400.51 1274.22L4425.6 1281.35 4425.18 1289.68C4420.29 1337.99 4379.63 1375.69 4330.19 1375.69 4277.46 1375.69 4234.71 1332.79 4234.71 1279.88 4234.71 1273.27 4235.38 1266.81 4236.65 1260.57L4238.32 1254.04Z" stroke="#000000" stroke-width="10.3333" stroke-miterlimit="8" fill="#CBD1D9" fill-rule="evenodd"/><path d="M1735 1896.5C1735 1541.66 2022.66 1254 2377.5 1254 2732.34 1254 3020 1541.66 3020 1896.5 3020 2251.34 2732.34 2539 2377.5 2539 2022.66 2539 1735 2251.34 1735 1896.5Z" stroke="#000000" stroke-width="10.3333" stroke-miterlimit="8" fill="none" fill-rule="evenodd"/><path d="M1585.22 2260.8 1689.56 2194.06C1690.78 2193.28 1692.27 2193.05 1693.67 2193.42 1695.06 2193.78 1696.24 2194.72 1696.92 2196L1744.74 2286.57C1744.92 2286.91 1745.06 2287.26 1745.16 2287.62L1784.29 2430.64 1774.57 2429.93 1822.39 2320.29 1822.52 2324.69 1779.04 2238.88C1778.04 2236.91 1778.41 2234.52 1779.95 2232.94 1781.5 2231.36 1783.88 2230.93 1785.87 2231.88L1911.03 2291.41 1903.89 2294.5 1931.37 2208.32C1931.92 2206.6 1933.33 2205.29 1935.09 2204.87 1936.84 2204.44 1938.69 2204.97 1939.97 2206.26L2013.41 2280.59 2005.41 2281.4 2070.63 2181.29 2149.15 2080.82C2150.24 2079.41 2151.99 2078.67 2153.76 2078.86 2155.53 2079.05 2157.08 2080.14 2157.86 2081.74L2172.31 2111.43 2163.01 2115.95 2148.57 2086.26 2157.29 2087.18 2079.29 2186.93 2014.07 2287.04C2013.22 2288.35 2011.82 2289.2 2010.26 2289.36 2008.71 2289.52 2007.16 2288.96 2006.06 2287.85L1932.62 2213.52 1941.21 2211.46 1913.73 2297.64C1913.28 2299.07 1912.23 2300.22 1910.86 2300.81 1909.5 2301.41 1907.94 2301.38 1906.59 2300.74L1781.43 2241.21 1788.26 2234.21 1831.74 2320.02C1832.44 2321.4 1832.48 2323.01 1831.87 2324.42L1784.04 2434.07C1783.16 2436.07 1781.12 2437.31 1778.93 2437.15 1776.75 2437 1774.9 2435.48 1774.32 2433.36L1735.19 2290.35 1735.6 2291.4 1687.78 2200.82 1695.13 2202.76 1590.78 2269.5ZM2179.34 2102.27 2188 2155.51 2151.46 2115.83Z"/><path d="M0 29C-3.69209e-15 12.9837 12.9837-3.69209e-15 29-7.38417e-15 45.0163-1.47683e-14 58 12.9837 58 29 58 45.0163 45.0163 58 29 58 12.9837 58-1.84604e-14 45.0163 0 29Z" stroke="#000000" stroke-width="10.3333" stroke-miterlimit="8" fill="#F1435A" fill-rule="evenodd" transform="matrix(1 0 0 -1 1576 2290)"/><path d="M0 29C-3.69209e-15 12.9837 12.9837-3.69209e-15 29-7.38417e-15 45.0163-1.47683e-14 58 12.9837 58 29 58 45.0163 45.0163 58 29 58 12.9837 58-1.84604e-14 45.0163 0 29Z" stroke="#000000" stroke-width="10.3333" stroke-miterlimit="8" stroke-dasharray="31 10.3333" fill="#F1435A" fill-rule="evenodd" transform="matrix(1 0 0 -1 2171 2205)"/><path d="M0 43C-5.47447e-15 19.2518 19.2518-5.47447e-15 43-1.09489e-14 66.7482-2.18979e-14 86 19.2518 86 43 86 66.7482 66.7482 86 43 86 19.2518 86-2.73724e-14 66.7482 0 43Z" stroke="#000000" stroke-width="10.3333" stroke-miterlimit="8" fill="#F1435A" fill-rule="evenodd" transform="matrix(1 0 0 -1 1562 1880)"/><path d="M1649.81 1847.08 1659.87 1858.08 1669.88 1868.63 1679.72 1878.47 1689.39 1887.16 1694.06 1890.92 1698.66 1894.26 1703.25 1897.23 1707.69 1899.67 1712.01 1901.61 1716.09 1902.9 1720.15 1903.69 1719.41 1903.59 1723.91 1903.84 1722.98 1903.87 1727.41 1903.31 1726.28 1903.59 1730.53 1902.03 1729.76 1902.38 1733.95 1900.01 1737.55 1897.29 1741.21 1893.92 1744.83 1889.99 1748.63 1885.53 1752.48 1880.75 1760.36 1870.64 1768.48 1860.57 1772.77 1855.75 1777.22 1851.28 1781.89 1847.26 1786.76 1843.78 1796.7 1837.76 1807.11 1831.77 1818.02 1826 1829.11 1820.76 1840.16 1816.55 1845.7 1814.87 1850.99 1813.6 1856.2 1812.77 1861.35 1812.47 1866.18 1812.72C1866.45 1812.73 1866.72 1812.77 1866.98 1812.83L1870.98 1813.7C1871.35 1813.78 1871.71 1813.91 1872.06 1814.07L1875.68 1815.75C1876.1 1815.95 1876.49 1816.2 1876.84 1816.49L1880.09 1819.24C1880.32 1819.44 1880.54 1819.66 1880.73 1819.89L1883.73 1823.52 1886.82 1828.39 1889.53 1833.64 1892.03 1839.2 1896.51 1850.76 1900.77 1861.98 1902.89 1866.99 1905.12 1871.44 1907.37 1875.15 1906.91 1874.51 1909.66 1877.82 1908.99 1877.15 1911.92 1879.59 1910.56 1878.77 1913.81 1880.08 1912.58 1879.76 1916.21 1880.26 1915.42 1880.21 1919.42 1880.15 1923.29 1879.68 1927.33 1878.77 1931.69 1877.43 1936.29 1875.67 1940.92 1873.55 1945.53 1871.02 1954.7 1864.89 1962.9 1857.62 1966.46 1853.74 1969.65 1849.54 1972.47 1845.14 1974.69 1840.63 1976.38 1835.77 1977.73 1830.1 1978.64 1823.81 1979.23 1816.87 1979.46 1809.46 1979.52 1801.52 1978.96 1785.05 1978.09 1768.14 1977.34 1751.48 1977.15 1743.5 1977.15 1735.81 1977.4 1728.57 1977.98 1721.75 1979.24 1709.59 1980.16 1698.33 1981.17 1687.58 1982.57 1677.3 1984.7 1667.46 1988 1657.97 1990.2 1653.24 1992.86 1648.68 1995.9 1644.34 1999.48 1640.05 2003.54 1635.84 2008.2 1631.56 2013.2 1627.27 2018.71 1622.98 2030.56 1614.75 2043.5 1607.11 2050.39 1603.68 2057.14 1600.66 2063.97 1598.05 2070.79 1595.94 2077.55 1594.4 2084.08 1593.45 2090.59 1593.21 2096.78 1593.73C2097.14 1593.76 2097.49 1593.83 2097.84 1593.94L2103.09 1595.56C2103.43 1595.67 2103.76 1595.81 2104.07 1595.98L2109.13 1598.8C2109.39 1598.94 2109.64 1599.11 2109.87 1599.29L2114.75 1603.23 2119.93 1608.43 2124.83 1614.24 2129.55 1620.44 2138.78 1633.45 2143.4 1639.94 2148.02 1646.17 2152.74 1651.91 2157.51 1656.96 2162.42 1661.25 2167.38 1664.52 2166.58 1664.08 2172.4 1666.65 2171.35 1666.31 2177.47 1667.56 2176.63 1667.46 2183.26 1667.71 2190.03 1667.4 2197.35 1666.55 2205.09 1665.16 2213.17 1663.22 2221.42 1660.79 2229.91 1657.92 2238.27 1654.58 2246.59 1650.74 2254.81 1646.48 2262.63 1641.86 2270.2 1636.82 2277.17 1631.46 2283.65 1625.75 2289.48 1619.71 2294.55 1613.43 2296.62 1610.23 2298.5 1606.64 2301.96 1598 2304.72 1588.21 2307.01 1577.25 2308.83 1565.46 2310.24 1553.1 2312.61 1527.59 2313.66 1515.12 2314.79 1503.02 2316.18 1491.51 2317.97 1480.95 2320.16 1471.52 2321.51 1467.15 2323.07 1463.16 2324.9 1459.53 2326.92 1456.37C2327.06 1456.15 2327.22 1455.95 2327.39 1455.76L2329.39 1453.51C2329.6 1453.26 2329.84 1453.04 2330.09 1452.85L2332.28 1451.16C2332.55 1450.96 2332.83 1450.78 2333.13 1450.63L2335.5 1449.44C2335.76 1449.31 2336.02 1449.21 2336.29 1449.12L2338.73 1448.37C2339.03 1448.28 2339.33 1448.22 2339.64 1448.18L2342.26 1447.87C2342.55 1447.84 2342.83 1447.83 2343.12 1447.84L2345.75 1447.96C2346.01 1447.98 2346.27 1448.01 2346.54 1448.06L2349.29 1448.63 2352.6 1449.63C2352.84 1449.7 2353.07 1449.79 2353.29 1449.9L2359.17 1452.71C2359.39 1452.82 2359.61 1452.94 2359.81 1453.08L2365.88 1457.15 2372.53 1462.57 2379.17 1468.8 2385.71 1475.78 2392.21 1483.23 2398.57 1491.05 2403.96 1498.35 2395.64 1504.48 2390.55 1497.57 2384.42 1490.02 2378.16 1482.84 2372.08 1476.32 2365.97 1470.56 2360.12 1465.73 2354.06 1461.67 2354.71 1462.04 2348.83 1459.22 2349.53 1459.5 2347.21 1458.75 2344.46 1458.19 2345.25 1458.29 2342.63 1458.16 2343.49 1458.13 2340.86 1458.44 2341.77 1458.25 2339.33 1459 2340.12 1458.68 2337.75 1459.87 2338.59 1459.34 2336.41 1461.03 2337.11 1460.37 2335.11 1462.62 2335.58 1462.01 2334.1 1464.22 2332.68 1466.97 2331.37 1470.23 2330.22 1473.86 2328.16 1482.68 2326.44 1492.74 2325.08 1503.98 2323.96 1516 2322.89 1528.54 2320.51 1554.27 2319.04 1567.04 2317.12 1579.37 2314.66 1591.04 2311.54 1601.87 2307.63 1611.49 2305.26 1615.89 2302.57 1619.94 2296.9 1626.91 2290.47 1633.5 2283.46 1639.66 2275.92 1645.43 2267.87 1650.76 2259.57 1655.65 2250.91 1660.13 2242.1 1664.17 2233.22 1667.71 2224.33 1670.71 2215.58 1673.28 2206.91 1675.34 2198.52 1676.82 2190.47 1677.72 2182.87 1678.04 2176.24 1677.79C2175.96 1677.78 2175.68 1677.74 2175.4 1677.69L2169.28 1676.44C2168.92 1676.36 2168.57 1676.25 2168.23 1676.1L2162.42 1673.54C2162.14 1673.42 2161.87 1673.27 2161.62 1673.1L2155.58 1669 2149.99 1664.04 2144.76 1658.47 2139.73 1652.33 2134.98 1645.93 2130.35 1639.43 2121.32 1626.69 2116.92 1620.89 2112.57 1615.69 2108.25 1611.27 2103.38 1607.33 2104.12 1607.83 2099.05 1605.02 2100.03 1605.44 2094.78 1603.81 2095.85 1604.02 2090.91 1603.54 2085.54 1603.68 2079.82 1604.48 2073.83 1605.81 2067.65 1607.7 2061.36 1610.09 2054.98 1612.94 2048.75 1616.01 2036.44 1623.25 2025.04 1631.14 2019.93 1635.11 2015.18 1639.19 2010.96 1643.03 2007.39 1646.7 2004.35 1650.28 2001.76 1653.94 1999.55 1657.64 1997.75 1661.4 1994.8 1669.67 1992.81 1678.7 1991.46 1688.54 1990.46 1699.17 1989.51 1710.66 1988.27 1722.63 1987.73 1728.93 1987.48 1735.81 1987.48 1743.25 1987.66 1751.02 1988.41 1767.61 1989.29 1784.7 1989.85 1801.6 1989.79 1809.79 1989.52 1817.76 1988.86 1825.32 1987.77 1832.53 1986.12 1839.23 1983.93 1845.25 1981.15 1850.74 1977.85 1855.83 1974.04 1860.76 1969.72 1865.38 1960.43 1873.49 1950.47 1880.1 1945.2 1882.95 1939.96 1885.33 1934.68 1887.32 1929.54 1888.86 1924.46 1889.95 1919.58 1890.48 1915.58 1890.54C1915.32 1890.55 1915.05 1890.53 1914.79 1890.49L1911.17 1889.99C1910.75 1889.94 1910.33 1889.83 1909.94 1889.67L1906.69 1888.35C1906.2 1888.15 1905.74 1887.88 1905.33 1887.54L1902.39 1885.1C1902.14 1884.9 1901.92 1884.67 1901.71 1884.43L1898.96 1881.11C1898.79 1880.91 1898.64 1880.7 1898.51 1880.47L1895.88 1876.06 1893.36 1871.01 1891.11 1865.65 1886.87 1854.49 1882.6 1843.42 1880.34 1838.36 1878.05 1833.86 1875.77 1830.11 1872.77 1826.48 1873.41 1827.13 1870.16 1824.38 1871.32 1825.12 1867.69 1823.43 1868.77 1823.8 1864.77 1822.92 1865.57 1823.03 1861.9 1822.78 1857.8 1822.98 1853.38 1823.65 1848.68 1824.76 1843.84 1826.2 1833.52 1830.11 1822.85 1835.13 1812.27 1840.73 1802.05 1846.61 1792.74 1852.22 1788.61 1855.11 1784.53 1858.59 1780.48 1862.63 1776.52 1867.06 1768.51 1876.99 1760.52 1887.25 1756.5 1892.22 1752.42 1897.01 1748.16 1901.58 1743.7 1905.59 1739.05 1908.99 1734.86 1911.37C1734.62 1911.51 1734.36 1911.63 1734.1 1911.72L1729.85 1913.29C1729.48 1913.42 1729.1 1913.51 1728.71 1913.56L1724.27 1914.13C1723.96 1914.17 1723.65 1914.18 1723.34 1914.16L1718.84 1913.91C1718.59 1913.89 1718.34 1913.86 1718.1 1913.81L1712.91 1912.73 1707.74 1911.02 1702.69 1908.71 1697.62 1905.9 1692.59 1902.62 1687.57 1898.96 1682.48 1894.84 1672.41 1885.78 1662.37 1875.74 1652.25 1865.05 1642.19 1854.05ZM2409.34 1488.15 2427 1539.13 2384.2 1506.29Z"/><path d="M0 43.5C-5.47447e-15 19.4756 19.2518-5.53813e-15 43-1.10763e-14 66.7482-2.21525e-14 86 19.4756 86 43.5 86 67.5244 66.7482 87 43 87 19.2518 87-2.73724e-14 67.5244 0 43.5Z" stroke="#000000" stroke-width="10.3333" stroke-miterlimit="8" stroke-dasharray="31 10.3333" fill="#F1435A" fill-rule="evenodd" transform="matrix(1 0 0 -1 2403 1616)"/><path d="M3597 1896.5C3597 1541.66 3884.66 1254 4239.5 1254 4594.34 1254 4882 1541.66 4882 1896.5 4882 2251.34 4594.34 2539 4239.5 2539 3884.66 2539 3597 2251.34 3597 1896.5Z" stroke="#000000" stroke-width="10.3333" stroke-miterlimit="8" fill="none" fill-rule="evenodd"/><text font-family="Open Sans,Open Sans_MSFontService,sans-serif" font-style="italic" font-weight="300" font-size="107" transform="translate(4014.43 2288)">+<tspan font-size="107" x="13" y="101">-</tspan><tspan font-size="107" x="304.653" y="-608">+</tspan><tspan font-size="107" x="317.653" y="-507">-</tspan><tspan font-size="107" x="-23.533" y="-416">+</tspan><tspan font-size="107" x="-10.533" y="-315">-</tspan><tspan font-size="107" x="-45.7939" y="-832">+</tspan><tspan font-size="107" x="-32.7939" y="-730">-</tspan><tspan font-size="107" x="630.931" y="-794">+</tspan><tspan font-size="107" x="643.931" y="-693">-</tspan><tspan font-size="107" x="296.664" y="-921">-</tspan><tspan font-size="107" x="656.372" y="-376">+</tspan><tspan font-size="107" x="669.372" y="-275">-</tspan><tspan font-size="107" x="330.094" y="-187">+</tspan><tspan font-size="107" x="343.094" y="-86">-</tspan><tspan font-size="107" x="651.284" y="50">+</tspan><tspan font-size="107" x="347.903" y="224">+</tspan><tspan font-size="107" x="-349.811" y="-229">+</tspan><tspan font-size="107" x="-336.811" y="-128">-</tspan><tspan font-size="107" x="-346.352" y="-549">-</tspan></text><path d="M3403 1853C3403 1827.04 3424.27 1806 3450.5 1806 3476.73 1806 3498 1827.04 3498 1853 3498 1878.96 3476.73 1900 3450.5 1900 3424.27 1900 3403 1878.96 3403 1853Z" stroke="#000000" stroke-width="10.3333" stroke-miterlimit="8" fill="#F1435A" fill-rule="evenodd"/><path d="M3496.47 1859.73 3505.53 1862.42 3515.35 1865.07 3526.11 1867.73 3537.5 1870.13 3549.68 1872.35 3562.31 1874.2 3575.49 1875.61 3589.04 1876.53 3602.89 1876.9 3616.93 1876.52 3631.1 1875.41 3645.29 1873.44 3659.34 1870.56 3673.3 1866.65 3686.98 1861.65 3700.33 1855.44 3706.93 1851.88 3713.83 1847.85 3720.86 1843.39 3728.07 1838.58 3742.99 1827.87 3758.26 1815.93 3773.81 1802.91 3789.44 1789.01 3805.16 1774.35 3820.7 1759.12 3836 1743.56 3850.86 1727.77 3865.23 1711.91 3878.98 1696.16 3891.92 1680.74 3896.62 1674.71 3904.76 1681.07 3899.83 1687.38 3886.77 1702.96 3872.89 1718.84 3858.39 1734.85 3843.37 1750.81 3827.93 1766.5 3812.21 1781.9 3796.31 1796.74 3780.44 1810.84 3764.62 1824.07 3749.01 1836.26 3733.8 1847.17 3726.39 1852.11 3719.04 1856.77 3711.82 1860.99 3704.67 1864.81 3690.52 1871.35 3676.08 1876.6 3661.41 1880.69 3646.71 1883.68 3631.9 1885.71 3617.2 1886.85 3602.61 1887.23 3588.34 1886.84 3574.39 1885.89 3560.81 1884.42 3547.82 1882.52 3535.37 1880.24 3523.64 1877.77 3512.65 1875.05 3502.59 1872.33 3493.53 1869.64ZM3885.25 1672.55 3929 1641 3909.84 1691.42Z"/><path d="M3909 1600.5C3909 1574.27 3930.27 1553 3956.5 1553 3982.73 1553 4004 1574.27 4004 1600.5 4004 1626.73 3982.73 1648 3956.5 1648 3930.27 1648 3909 1626.73 3909 1600.5Z" stroke="#000000" stroke-width="10.3333" stroke-miterlimit="8" stroke-dasharray="31 10.3333" fill="#F1435A" fill-rule="evenodd"/><path d="M3403 2298C3403 2272.04 3424.27 2251 3450.5 2251 3476.73 2251 3498 2272.04 3498 2298 3498 2323.96 3476.73 2345 3450.5 2345 3424.27 2345 3403 2323.96 3403 2298Z" stroke="#000000" stroke-width="10.3333" stroke-miterlimit="8" fill="#F1435A" fill-rule="evenodd"/><path d="M3497.44 2302.86 3507.19 2301.8 3517.71 2300.44 3529.13 2298.76 3541.27 2296.72 3554.2 2294.35 3567.77 2291.74 3582 2288.76 3596.77 2285.52 3612.1 2282.02 3627.85 2278.23 3643.99 2274.18 3660.51 2269.88 3694.32 2260.58 3728.78 2250.36 3763.5 2239.33 3798.03 2227.61 3831.84 2215.15 3848.37 2208.69 3864.55 2202.09 3880.35 2195.37 3895.71 2188.53 3910.56 2181.57 3924.92 2174.55 3938.54 2167.42 3951.55 2160.17 3963.88 2152.92 3975.34 2145.59 3986.3 2138.21 3996.85 2130.83 4017.07 2116.02 4036 2101.18 4053.79 2086.12 4070.5 2070.76 4086.42 2054.9 4101.64 2038.43 4116.33 2021.32 4130.51 2003.42 4144.4 1984.5 4158.19 1964.56 4171.91 1943.38 4185.79 1920.91 4192.82 1909.16 4199.92 1897.07 4206.8 1885.01 4215.77 1890.14 4208.83 1902.31 4201.68 1914.46 4194.58 1926.34 4180.59 1949 4166.69 1970.44 4152.73 1990.62 4138.61 2009.83 4124.17 2028.05 4109.23 2045.45 4093.71 2062.22 4077.5 2078.37 4060.46 2094.01 4042.37 2109.32 4023.18 2124.36 4002.78 2139.3 3992.07 2146.79 3980.91 2154.29 3969.12 2161.83 3956.58 2169.2 3943.33 2176.58 3929.46 2183.83 3914.94 2190.93 3899.91 2197.97 3884.4 2204.88 3868.45 2211.66 3852.13 2218.31 3835.41 2224.85 3801.35 2237.39 3766.63 2249.17 3731.72 2260.27 3697.06 2270.54 3663.11 2279.88 3646.51 2284.2 3630.27 2288.27 3614.4 2292.1 3598.98 2295.61 3584.12 2298.87 3569.73 2301.89 3556.05 2304.52 3542.98 2306.91 3530.63 2308.99 3519.04 2310.69 3508.31 2312.07 3498.56 2313.14ZM4195.24 1884.51 4234 1847 4222.29 1899.65Z"/><path d="M4206 1801.5C4206 1775.27 4227.04 1754 4253 1754 4278.96 1754 4300 1775.27 4300 1801.5 4300 1827.73 4278.96 1849 4253 1849 4227.04 1849 4206 1827.73 4206 1801.5Z" stroke="#000000" stroke-width="10.3333" stroke-miterlimit="8" stroke-dasharray="31 10.3333" fill="#F1435A" fill-rule="evenodd"/><text font-family="Open Sans,Open Sans_MSFontService,sans-serif" font-weight="600" font-size="128" transform="translate(2108.49 2719)">Diffusion<tspan font-style="italic" font-weight="300" font-size="128" x="-114" y="153">Small particles</tspan><tspan font-size="128" x="1761.55" y="0">Electrostatic</tspan><tspan font-style="italic" font-weight="300" font-size="128" x="1837.97" y="153">All particles</tspan></text></g></svg>
