<svg width="1269" height="314" xmlns="http://www.w3.org/2000/svg" xmlns:xlink="http://www.w3.org/1999/xlink" overflow="hidden"><defs><clipPath id="clip0"><rect x="10" y="239" width="1269" height="314"/></clipPath></defs><g clip-path="url(#clip0)" transform="translate(-10 -239)"><path d="M190.154 453.297C196.526 452.503 203.048 455.511 206.461 461.444L207.09 463.322 198.454 466.495C191.449 468.681 184.15 470.196 176.63 470.962L175.888 471 176.275 465.434C177.366 461.345 180.012 457.674 183.952 455.39 185.922 454.248 188.03 453.561 190.154 453.297ZM247.234 420.217C250.42 419.82 253.644 420.373 256.497 421.768L257.587 422.515 251.5 430.686C249.221 433.458 246.811 436.119 244.281 438.659L235.733 445.738 235.001 444.904C230.451 436.993 233.151 426.877 241.032 422.31 243.002 421.168 245.11 420.481 247.234 420.217ZM129.324 413.695C135.696 412.902 142.218 415.91 145.63 421.843 150.18 429.754 147.48 439.87 139.599 444.437 131.718 449.005 121.641 446.294 117.091 438.383 112.541 430.472 115.241 420.356 123.122 415.789 125.092 414.647 127.2 413.96 129.324 413.695ZM186.403 380.615C192.776 379.822 199.297 382.83 202.71 388.763 207.26 396.674 204.56 406.79 196.679 411.357 188.798 415.924 178.72 413.214 174.17 405.303 169.62 397.392 172.32 387.276 180.201 382.709 182.172 381.567 184.279 380.88 186.403 380.615ZM68.4932 374.094C74.8656 373.3 81.3874 376.308 84.8 382.242 89.3502 390.153 86.6499 400.268 78.7688 404.836 74.8283 407.12 70.3387 407.584 66.2654 406.488L63.075 404.926 62.1373 402.972C60.7225 399.614 59.4656 396.172 58.3763 392.657L56 383.38 57.3843 380.532C58.6746 378.818 60.3211 377.329 62.2913 376.188 64.2617 375.046 66.3692 374.359 68.4932 374.094ZM243.483 347.535C249.855 346.741 256.377 349.749 259.79 355.683 264.34 363.594 261.64 373.709 253.759 378.277 245.877 382.844 235.8 380.134 231.25 372.223 226.7 364.312 229.4 354.196 237.281 349.628 239.251 348.487 241.359 347.799 243.483 347.535ZM125.573 341.014C131.945 340.22 138.467 343.228 141.88 349.161 146.43 357.072 143.73 367.188 135.849 371.756 127.967 376.323 117.89 373.613 113.34 365.702 108.79 357.79 111.49 347.675 119.371 343.107 121.341 341.965 123.449 341.279 125.573 341.014ZM182.653 307.934C189.025 307.14 195.547 310.148 198.959 316.081 203.509 323.992 200.809 334.108 192.928 338.675 185.047 343.243 174.97 340.532 170.42 332.621 165.869 324.71 168.57 314.594 176.451 310.027 178.421 308.885 180.529 308.198 182.653 307.934ZM69.4137 301.515 69.499 301.516C74.1816 302.306 78.49 305.11 81.0493 309.56 85.5994 317.471 82.8992 327.587 75.0182 332.154 71.0777 334.438 66.588 334.902 62.5148 333.807L57.0346 331.122 58.3763 325.884C60.555 318.853 63.4036 312.119 66.8471 305.755ZM238.65 275.219 244.281 279.883C246.811 282.422 249.221 285.083 251.5 287.856L257.507 295.919 254.915 301.25C253.625 302.965 251.978 304.453 250.008 305.595 242.127 310.163 232.049 307.452 227.499 299.541 222.949 291.63 225.649 281.514 233.53 276.947ZM121.822 268.332C128.195 267.539 134.716 270.547 138.129 276.48 142.679 284.391 139.979 294.507 132.098 299.074 124.217 303.642 114.139 300.931 109.589 293.02 105.039 285.109 107.739 274.993 115.62 270.426 117.59 269.284 119.698 268.597 121.822 268.332ZM165.212 247 176.63 247.579C180.39 247.962 184.095 248.532 187.735 249.28L197.149 251.71 196.855 255.951C195.763 260.039 193.118 263.71 189.177 265.994 181.296 270.561 171.219 267.851 166.669 259.94 164.394 255.984 163.931 251.477 165.023 247.389Z" stroke="#37383A" stroke-width="2" stroke-miterlimit="8" fill="#BFC4CA" fill-rule="evenodd"/><path d="M53 359C53 297.144 103.368 247 165.5 247 227.632 247 278 297.144 278 359 278 420.856 227.632 471 165.5 471 103.368 471 53 420.856 53 359Z" stroke="#37383A" stroke-width="2" stroke-miterlimit="8" fill="none" fill-rule="evenodd"/><path d="M30 346 80.9333 346 80.9333 348 30 348ZM79.6 344.333 87.6 347 79.6 349.667Z" fill="#37383A"/><path d="M88 347.5C88 340.596 93.3726 335 100 335 106.627 335 112 340.596 112 347.5 112 354.404 106.627 360 100 360 93.3726 360 88 354.404 88 347.5Z" stroke="#37383A" stroke-width="2" stroke-miterlimit="8" stroke-dasharray="2 2" fill="#FFE4B4" fill-rule="evenodd"/><path d="M12 347.5C12 340.596 17.3726 335 24 335 30.6274 335 36 340.596 36 347.5 36 354.404 30.6274 360 24 360 17.3726 360 12 354.404 12 347.5Z" stroke="#37383A" stroke-width="2" stroke-miterlimit="8" fill="#FFBB43" fill-rule="evenodd"/><path d="M30 423 82.7961 423 82.7961 425 30 425ZM81.4628 421.333 89.4628 424 81.4628 426.667Z" fill="#37383A"/><path d="M90 424C90 417.373 95.5964 412 102.5 412 109.404 412 115 417.373 115 424 115 430.627 109.404 436 102.5 436 95.5964 436 90 430.627 90 424Z" stroke="#37383A" stroke-width="2" stroke-miterlimit="8" stroke-dasharray="2 2" fill="#FFE4B4" fill-rule="evenodd"/><path d="M12 424C12 417.373 17.3726 412 24 412 30.6274 412 36 417.373 36 424 36 430.627 30.6274 436 24 436 17.3726 436 12 430.627 12 424Z" stroke="#37383A" stroke-width="2" stroke-miterlimit="8" fill="#FFBB43" fill-rule="evenodd"/><text font-family="Segoe UI,Segoe UI_MSFontService,sans-serif" font-weight="600" font-size="23" transform="translate(122.919 506)">Impaction<tspan font-style="italic" font-weight="300" x="-25.08" y="27">Largest </tspan><tspan font-style="italic" font-weight="300" x="49.4067" y="27">particles</tspan></text><path d="M864.805 453.297C871.209 452.503 877.762 455.511 881.191 461.444L881.823 463.322 873.145 466.495C866.107 468.681 858.772 470.196 851.215 470.962L850.47 471 850.859 465.434C851.955 461.345 854.614 457.674 858.573 455.39 860.553 454.248 862.671 453.561 864.805 453.297ZM922.162 420.217C925.364 419.82 928.603 420.373 931.47 421.768L932.566 422.515 926.449 430.686C924.159 433.458 921.738 436.119 919.195 438.659L910.606 445.738 909.87 444.904C905.297 436.993 908.011 426.877 915.93 422.31 917.91 421.168 920.028 420.481 922.162 420.217ZM803.68 413.695C810.083 412.902 816.636 415.91 820.065 421.843 824.638 429.754 821.924 439.87 814.005 444.437 806.086 449.005 795.959 446.294 791.387 438.383 786.815 430.472 789.528 420.356 797.448 415.789 799.427 414.647 801.545 413.96 803.68 413.695ZM861.036 380.615C867.44 379.822 873.993 382.83 877.422 388.763 881.994 396.674 879.281 406.79 871.362 411.357 863.443 415.924 853.316 413.214 848.744 405.303 844.172 397.392 846.885 387.276 854.804 382.709 856.784 381.567 858.902 380.88 861.036 380.615ZM742.554 374.094C748.957 373.3 755.511 376.308 758.94 382.242 763.512 390.153 760.799 400.268 752.879 404.836 748.92 407.12 744.408 407.584 740.315 406.488L737.109 404.926 736.167 402.972C734.745 399.614 733.482 396.172 732.388 392.657L730 383.38 731.391 380.532C732.688 378.818 734.342 377.329 736.322 376.188 738.302 375.046 740.419 374.359 742.554 374.094ZM918.393 347.535C924.797 346.741 931.35 349.749 934.779 355.683 939.351 363.594 936.638 373.709 928.719 378.277 920.799 382.844 910.673 380.134 906.101 372.223 901.528 364.312 904.242 354.196 912.161 349.628 914.141 348.487 916.259 347.799 918.393 347.535ZM799.911 341.014C806.314 340.22 812.867 343.228 816.297 349.161 820.869 357.072 818.155 367.188 810.236 371.756 802.317 376.323 792.19 373.613 787.618 365.702 783.046 357.79 785.759 347.675 793.679 343.107 795.659 341.965 797.776 341.279 799.911 341.014ZM857.268 307.934C863.671 307.14 870.224 310.148 873.653 316.081 878.226 323.992 875.512 334.108 867.593 338.675 859.674 343.243 849.547 340.532 844.975 332.621 840.403 324.71 843.116 314.594 851.035 310.027 853.015 308.885 855.133 308.198 857.268 307.934ZM743.479 301.515 743.565 301.516C748.27 302.306 752.599 305.11 755.171 309.56 759.743 317.471 757.03 327.587 749.11 332.154 745.151 334.438 740.639 334.902 736.546 333.807L731.04 331.122 732.388 325.884C734.577 318.853 737.44 312.119 740.9 305.755ZM913.537 275.219 919.195 279.883C921.738 282.422 924.159 285.083 926.449 287.856L932.485 295.919 929.881 301.25C928.584 302.965 926.929 304.453 924.95 305.595 917.03 310.163 906.904 307.452 902.332 299.541 897.759 291.63 900.473 281.514 908.392 276.947ZM796.142 268.332C802.545 267.539 809.099 270.547 812.528 276.48 817.1 284.391 814.387 294.507 806.467 299.074 798.548 303.642 788.422 300.931 783.849 293.02 779.277 285.109 781.99 274.993 789.91 270.426 791.889 269.284 794.007 268.597 796.142 268.332ZM839.742 247 851.215 247.579C854.994 247.962 858.716 248.532 862.375 249.28L871.834 251.71 871.538 255.951C870.442 260.039 867.784 263.71 863.824 265.994 855.905 270.561 845.778 267.851 841.206 259.94 838.92 255.984 838.455 251.477 839.552 247.389Z" stroke="#37383A" stroke-width="2" stroke-miterlimit="8" fill="#BFC4CA" fill-rule="evenodd"/><path d="M728 359C728 297.144 778.144 247 840 247 901.856 247 952 297.144 952 359 952 420.856 901.856 471 840 471 778.144 471 728 420.856 728 359Z" stroke="#37383A" stroke-width="2" stroke-miterlimit="8" fill="none" fill-rule="evenodd"/><text font-family="Segoe UI,Segoe UI_MSFontService,sans-serif" font-weight="600" font-size="23" transform="translate(798.983 506)">Diffusion<tspan font-style="italic" font-weight="300" x="-22.3666" y="27">Small particles</tspan></text><path d="M701.461 422.911 719.721 411.213C719.957 411.062 720.245 411.016 720.516 411.088 720.787 411.159 721.015 411.341 721.146 411.588L729.515 427.465C729.549 427.53 729.576 427.598 729.595 427.668L736.443 452.736 734.561 452.601 742.931 433.382 742.956 434.232 735.347 419.191C735.154 418.809 735.225 418.347 735.524 418.041 735.823 417.735 736.283 417.653 736.669 417.837L758.572 428.271 757.189 428.871 761.998 413.764C762.104 413.43 762.377 413.176 762.718 413.094 763.058 413.013 763.417 413.115 763.663 413.365L776.516 426.394 774.966 426.551 786.379 409.003 800.125 391.385C800.337 391.113 800.675 390.969 801.018 391.006 801.361 391.042 801.662 391.253 801.813 391.563L804.987 398.1 803.188 398.974 800.013 392.437 801.701 392.615 788.056 410.093 776.643 427.641C776.478 427.895 776.206 428.06 775.905 428.091 775.604 428.121 775.305 428.014 775.092 427.798L762.239 414.769 763.904 414.37 759.095 429.477C759.007 429.753 758.805 429.977 758.539 430.091 758.274 430.206 757.972 430.201 757.712 430.077L735.809 419.643 737.131 418.288 744.74 433.329C744.875 433.595 744.884 433.907 744.765 434.18L736.395 453.399C736.226 453.788 735.829 454.028 735.406 453.997 734.983 453.967 734.625 453.673 734.514 453.264L727.666 428.195 727.746 428.398 719.376 412.521 720.8 412.897 702.539 424.595ZM805.904 396.173 807 404.534 801.107 398.503Z" fill="#37383A"/><path d="M0 5C-6.36567e-16 2.23858 2.23858 -6.36567e-16 5-1.27313e-15 7.76142-2.54627e-15 10 2.23858 10 5 10 7.76142 7.76142 10 5 10 2.23858 10-3.18283e-15 7.76142 0 5Z" stroke="#37383A" stroke-width="2" stroke-miterlimit="8" fill="#FFBB43" fill-rule="evenodd" transform="matrix(1 0 0 -1 700 428)"/><path d="M0 5C-6.36567e-16 2.23858 2.23858 -6.36567e-16 5-1.27313e-15 7.76142-2.54627e-15 10 2.23858 10 5 10 7.76142 7.76142 10 5 10 2.23858 10-3.18283e-15 7.76142 0 5Z" stroke="#37383A" stroke-width="2" stroke-miterlimit="8" stroke-dasharray="2 2" fill="#FFE4B4" fill-rule="evenodd" transform="matrix(1 0 0 -1 804 413)"/><path d="M0 7.5C-9.5485e-16 3.35786 3.35786 -9.5485e-16 7.5-1.9097e-15 11.6421-3.8194e-15 15 3.35786 15 7.5 15 11.6421 11.6421 15 7.5 15 3.35786 15-4.77425e-15 11.6421 0 7.5Z" stroke="#37383A" stroke-width="2" stroke-miterlimit="8" fill="#FFBB43" fill-rule="evenodd" transform="matrix(1 0 0 -1 697 356)"/><path d="M712.731 350.193 716.231 353.943 719.687 357.211 719.562 357.11 722.874 359.36 722.66 359.25 724.347 359.875 724.119 359.82 725.682 360.007 725.32 360.03 726.82 359.655 726.516 359.787 727.954 358.85 727.793 358.98 729.168 357.605 730.487 356.042 733.283 352.561 734.764 350.948C734.804 350.904 734.848 350.865 734.895 350.829L736.457 349.641 740.066 347.569 743.865 345.668C743.909 345.646 743.955 345.627 744.001 345.612L747.626 344.425C747.69 344.404 747.756 344.389 747.823 344.382L749.448 344.194C749.529 344.185 749.611 344.185 749.692 344.196L751.129 344.383C751.273 344.402 751.411 344.452 751.534 344.53L752.721 345.28C752.829 345.347 752.922 345.434 752.996 345.537L753.996 346.912C754.031 346.96 754.062 347.011 754.088 347.065L754.963 348.878 755.745 350.889 756.495 352.827 757.232 354.544 757.112 354.337 758.05 355.587 757.793 355.348 758.856 356.035 758.247 355.877 761.122 355.69 760.802 355.765 764.239 354.327 764.008 354.463 767.195 351.963 767.06 352.091 768.372 350.591 768.251 350.764 769.188 349.077 769.1 349.292 769.662 347.292 769.633 347.435 769.946 344.998 769.875 339.511 769.626 333.73 769.563 331.086 769.753 328.609 770.129 324.533 770.57 320.88C770.576 320.831 770.585 320.783 770.598 320.735L771.473 317.548C771.5 317.45 771.542 317.356 771.597 317.271L773.409 314.458C773.452 314.392 773.502 314.332 773.559 314.277L774.996 312.902 776.879 311.404 781.147 308.658 783.583 307.529 785.91 306.684C785.966 306.664 786.023 306.649 786.081 306.639L788.269 306.264C788.335 306.253 788.402 306.248 788.469 306.25L790.469 306.313C790.589 306.317 790.708 306.342 790.82 306.388L792.632 307.138C792.741 307.184 792.842 307.248 792.928 307.328L794.553 308.828C794.588 308.86 794.621 308.895 794.651 308.932L796.276 310.932 797.884 313.242 799.49 315.404 801.19 317.341 801.029 317.194 802.904 318.569 802.629 318.426 804.691 319.114 804.375 319.063 806.813 319.063 806.655 319.075 809.405 318.637 809.261 318.671 815.199 316.796 815.022 316.871 820.772 313.746 820.616 313.852 823.053 311.852 822.94 311.961 824.94 309.711 824.793 309.928 826.231 307.053 826.151 307.273 827.026 303.523 827.571 299.369 828.005 294.964 828.379 290.725 828.949 286.914 829.786 283.858C829.808 283.78 829.839 283.705 829.878 283.635L830.441 282.635C830.493 282.543 830.559 282.459 830.637 282.388L831.387 281.7C831.518 281.58 831.679 281.497 831.853 281.46L833.603 281.085C833.781 281.047 833.966 281.058 834.138 281.117L836.138 281.804C836.239 281.839 836.335 281.89 836.42 281.956L838.545 283.581 840.885 285.846 843.143 288.547 844.906 290.937 843.296 292.123 841.607 289.828 839.49 287.279 837.33 285.169 835.205 283.544 835.487 283.696 833.487 283.008 834.022 283.04 832.272 283.415 832.738 283.175 831.988 283.862 832.184 283.615 831.622 284.615 831.714 284.392 830.926 287.211 830.371 290.9 829.995 295.161 829.554 299.631 828.974 303.977 828.099 307.727C828.081 307.803 828.054 307.877 828.019 307.947L826.582 310.822C826.543 310.901 826.493 310.974 826.435 311.039L824.435 313.289C824.4 313.328 824.362 313.365 824.322 313.398L821.884 315.398C821.835 315.438 821.783 315.473 821.728 315.504L815.978 318.629C815.921 318.659 815.862 318.684 815.801 318.704L809.864 320.579C809.817 320.593 809.768 320.605 809.72 320.613L806.97 321.05C806.918 321.058 806.865 321.063 806.813 321.063L804.375 321.063C804.268 321.063 804.161 321.045 804.059 321.011L801.996 320.324C801.898 320.291 801.805 320.243 801.721 320.181L799.846 318.806C799.787 318.763 799.733 318.714 799.685 318.659L797.885 316.596 796.241 314.383 794.724 312.193 793.099 310.193 793.197 310.297 791.572 308.797 791.868 308.987 790.055 308.237 790.406 308.312 788.406 308.25 788.606 308.236 786.419 308.611 786.59 308.566 784.417 309.346 782.228 310.342 778.121 312.971 776.379 314.348 774.941 315.723 775.091 315.542 773.278 318.354 773.402 318.077 772.527 321.265 772.555 321.12 772.121 324.717 771.747 328.766 771.562 331.039 771.624 333.645 771.875 339.489 771.929 345.252 771.617 347.69C771.611 347.738 771.601 347.786 771.588 347.833L771.025 349.833C771.004 349.908 770.974 349.98 770.937 350.048L769.999 351.736C769.965 351.797 769.924 351.855 769.878 351.909L768.565 353.409C768.524 353.455 768.479 353.498 768.43 353.537L765.242 356.037C765.172 356.092 765.094 356.138 765.011 356.173L761.573 357.61C761.471 357.653 761.363 357.678 761.253 357.685L758.378 357.873C758.163 357.887 757.95 357.831 757.769 357.715L756.707 357.027C756.608 356.963 756.521 356.882 756.45 356.788L755.513 355.538C755.465 355.474 755.425 355.405 755.393 355.331L754.63 353.548 753.88 351.611 753.162 349.747 752.287 347.935 752.379 348.088 751.379 346.713 751.654 346.97 750.466 346.22 750.871 346.367 749.433 346.179 749.677 346.181 748.052 346.368 748.249 346.325 744.624 347.513 744.76 347.457 741.059 349.306 737.668 351.234 736.105 352.421 736.236 352.302 734.842 353.814 732.013 357.333 730.582 359.02 729.207 360.395C729.158 360.444 729.104 360.487 729.046 360.525L727.609 361.463C727.516 361.523 727.413 361.568 727.305 361.595L725.805 361.97C725.687 362 725.564 362.007 725.443 361.993L723.881 361.805C723.803 361.796 723.726 361.778 723.653 361.75L721.965 361.125C721.889 361.097 721.817 361.06 721.751 361.015L718.438 358.765C718.394 358.734 718.352 358.701 718.313 358.664L714.769 355.307 711.269 351.557ZM845.484 288.889 848 296.938 841.158 292.008Z" fill="#37383A"/><path d="M0 7.5C-9.5485e-16 3.35786 3.35786 -9.5485e-16 7.5-1.9097e-15 11.6421-3.8194e-15 15 3.35786 15 7.5 15 11.6421 11.6421 15 7.5 15 3.35786 15-4.77425e-15 11.6421 0 7.5Z" stroke="#37383A" stroke-width="2" stroke-miterlimit="8" stroke-dasharray="2 2" fill="#FFE4B4" fill-rule="evenodd" transform="matrix(1 0 0 -1 844 310)"/><path d="M1190.15 453.297C1196.53 452.503 1203.05 455.511 1206.46 461.444L1207.09 463.322 1198.45 466.495C1191.45 468.681 1184.15 470.196 1176.63 470.962L1175.89 471 1176.27 465.434C1177.37 461.345 1180.01 457.674 1183.95 455.39 1185.92 454.248 1188.03 453.561 1190.15 453.297ZM1247.23 420.217C1250.42 419.82 1253.64 420.373 1256.5 421.768L1257.59 422.515 1251.5 430.686C1249.22 433.458 1246.81 436.119 1244.28 438.659L1235.73 445.738 1235 444.904C1230.45 436.993 1233.15 426.877 1241.03 422.31 1243 421.168 1245.11 420.481 1247.23 420.217ZM1129.32 413.695C1135.7 412.902 1142.22 415.91 1145.63 421.843 1150.18 429.754 1147.48 439.87 1139.6 444.437 1131.72 449.005 1121.64 446.294 1117.09 438.383 1112.54 430.472 1115.24 420.356 1123.12 415.789 1125.09 414.647 1127.2 413.96 1129.32 413.695ZM1186.4 380.615C1192.78 379.822 1199.3 382.83 1202.71 388.763 1207.26 396.674 1204.56 406.79 1196.68 411.357 1188.8 415.924 1178.72 413.214 1174.17 405.303 1169.62 397.392 1172.32 387.276 1180.2 382.709 1182.17 381.567 1184.28 380.88 1186.4 380.615ZM1068.49 374.094C1074.87 373.3 1081.39 376.308 1084.8 382.242 1089.35 390.153 1086.65 400.268 1078.77 404.836 1074.83 407.12 1070.34 407.584 1066.27 406.488L1063.08 404.926 1062.14 402.972C1060.72 399.614 1059.47 396.172 1058.38 392.657L1056 383.38 1057.38 380.532C1058.67 378.818 1060.32 377.329 1062.29 376.188 1064.26 375.046 1066.37 374.359 1068.49 374.094ZM1243.48 347.535C1249.86 346.741 1256.38 349.749 1259.79 355.683 1264.34 363.594 1261.64 373.709 1253.76 378.277 1245.88 382.844 1235.8 380.134 1231.25 372.223 1226.7 364.312 1229.4 354.196 1237.28 349.628 1239.25 348.487 1241.36 347.799 1243.48 347.535ZM1125.57 341.014C1131.95 340.22 1138.47 343.228 1141.88 349.161 1146.43 357.072 1143.73 367.188 1135.85 371.756 1127.97 376.323 1117.89 373.613 1113.34 365.702 1108.79 357.79 1111.49 347.675 1119.37 343.107 1121.34 341.965 1123.45 341.279 1125.57 341.014ZM1182.65 307.934C1189.03 307.14 1195.55 310.148 1198.96 316.081 1203.51 323.992 1200.81 334.108 1192.93 338.675 1185.05 343.243 1174.97 340.532 1170.42 332.621 1165.87 324.71 1168.57 314.594 1176.45 310.027 1178.42 308.885 1180.53 308.198 1182.65 307.934ZM1069.41 301.515 1069.5 301.516C1074.18 302.306 1078.49 305.11 1081.05 309.56 1085.6 317.471 1082.9 327.587 1075.02 332.154 1071.08 334.438 1066.59 334.902 1062.51 333.807L1057.03 331.122 1058.38 325.884C1060.55 318.853 1063.4 312.119 1066.85 305.755ZM1238.65 275.219 1244.28 279.883C1246.81 282.422 1249.22 285.083 1251.5 287.856L1257.51 295.919 1254.91 301.25C1253.62 302.965 1251.98 304.453 1250.01 305.595 1242.13 310.163 1232.05 307.452 1227.5 299.541 1222.95 291.63 1225.65 281.514 1233.53 276.947ZM1121.82 268.332C1128.19 267.539 1134.72 270.547 1138.13 276.48 1142.68 284.391 1139.98 294.507 1132.1 299.074 1124.22 303.642 1114.14 300.931 1109.59 293.02 1105.04 285.109 1107.74 274.993 1115.62 270.426 1117.59 269.284 1119.7 268.597 1121.82 268.332ZM1165.21 247 1176.63 247.579C1180.39 247.962 1184.09 248.532 1187.74 249.28L1197.15 251.71 1196.85 255.951C1195.76 260.039 1193.12 263.71 1189.18 265.994 1181.3 270.561 1171.22 267.851 1166.67 259.94 1164.39 255.984 1163.93 251.477 1165.02 247.389Z" stroke="#37383A" stroke-width="2" stroke-miterlimit="8" fill="#BFC4CA" fill-rule="evenodd"/><path d="M1053 359C1053 297.144 1103.14 247 1165 247 1226.86 247 1277 297.144 1277 359 1277 420.856 1226.86 471 1165 471 1103.14 471 1053 420.856 1053 359Z" stroke="#37383A" stroke-width="2" stroke-miterlimit="8" fill="none" fill-rule="evenodd"/><text font-family="Segoe UI,Segoe UI_MSFontService,sans-serif" font-weight="600" font-size="23" transform="translate(1100.74 506)">Electrostatic<tspan font-style="italic" font-weight="300" x="-3.46667" y="27">Most particles</tspan><tspan font-style="italic" font-weight="300" x="75.9041" y="-183">+</tspan><tspan font-style="italic" font-weight="300" x="78.9873" y="-166">-</tspan><tspan font-style="italic" font-weight="300" x="18.5707" y="-150">+</tspan><tspan font-style="italic" font-weight="300" x="21.6541" y="-132">-</tspan><tspan font-style="italic" font-weight="300" x="14.6818" y="-222">+</tspan><tspan font-style="italic" font-weight="300" x="17.765" y="-205">-</tspan><tspan font-style="italic" font-weight="300" x="132.904" y="-216">+</tspan><tspan font-style="italic" font-weight="300" x="135.987" y="-198">-</tspan><tspan font-style="italic" font-weight="300" x="75.3207" y="-238">-</tspan><tspan font-style="italic" font-weight="300" x="137.349" y="-143">+</tspan><tspan font-style="italic" font-weight="300" x="140.432" y="-125">-</tspan><tspan font-style="italic" font-weight="300" x="80.3485" y="-110">+</tspan><tspan font-style="italic" font-weight="300" x="83.4319" y="-92">-</tspan><tspan font-style="italic" font-weight="300" x="136.46" y="-68">+</tspan><tspan font-style="italic" font-weight="300" x="83.4596" y="-38">+</tspan><tspan font-style="italic" font-weight="300" x="22.6819" y="-77">+</tspan><tspan font-style="italic" font-weight="300" x="25.7651" y="-59">-</tspan><tspan font-style="italic" font-weight="300" x="-38.4293" y="-117">+</tspan><tspan font-style="italic" font-weight="300" x="-35.3459" y="-99">-</tspan><tspan font-style="italic" font-weight="300" x="-37.0128" y="-173">-</tspan></text><path d="M1019 351.5C1019 346.806 1022.81 343 1027.5 343 1032.19 343 1036 346.806 1036 351.5 1036 356.194 1032.19 360 1027.5 360 1022.81 360 1019 356.194 1019 351.5Z" stroke="#37383A" stroke-width="2" stroke-miterlimit="8" fill="#FFBB43" fill-rule="evenodd"/><path d="M1035.27 353.038 1038.58 353.975 1042.47 354.836 1046.85 355.576 1051.53 356.004 1056.36 355.938 1061.34 355.442 1061.2 355.467 1066.26 354.217 1066.12 354.262 1071 352.262 1070.86 352.33 1075.86 349.33 1081.09 345.389 1086.54 340.739 1092 335.527 1097.28 330.055 1102.19 324.582 1106.15 319.656 1107.71 320.91 1103.68 325.918 1098.72 331.445 1093.38 336.973 1087.84 342.261 1082.29 346.986 1076.89 351.045 1071.89 354.045C1071.85 354.071 1071.8 354.094 1071.75 354.113L1066.88 356.113C1066.83 356.131 1066.79 356.147 1066.74 356.158L1061.68 357.408C1061.63 357.42 1061.58 357.428 1061.54 357.433L1056.39 357.937 1051.35 357.996 1046.52 357.549 1042.03 356.789 1038.04 355.9 1034.73 354.962ZM1104.01 319.713 1111 315 1108.23 322.966Z" fill="#37383A"/><path d="M1107 307.5C1107 302.806 1110.81 299 1115.5 299 1120.19 299 1124 302.806 1124 307.5 1124 312.194 1120.19 316 1115.5 316 1110.81 316 1107 312.194 1107 307.5Z" stroke="#37383A" stroke-width="2" stroke-miterlimit="8" stroke-dasharray="2 2" fill="#FFE4B4" fill-rule="evenodd"/><path d="M1019 429.5C1019 424.806 1022.81 421 1027.5 421 1032.19 421 1036 424.806 1036 429.5 1036 434.194 1032.19 438 1027.5 438 1022.81 438 1019 434.194 1019 429.5Z" stroke="#37383A" stroke-width="2" stroke-miterlimit="8" fill="#FFBB43" fill-rule="evenodd"/><path d="M1035.88 430.007 1039.44 429.57 1043.54 428.949 1048.13 428.08 1053.16 426.961 1064.26 424.217 1076.16 420.789 1088.19 416.801 1099.76 412.317 1105.16 409.959 1110.18 407.478 1114.84 404.993 1118.97 402.403 1126.23 397.188 1132.62 391.975 1138.3 386.469 1143.5 380.588 1148.39 374.145 1153.16 366.888 1158.02 358.738 1159.89 355.347 1161.64 356.316 1159.73 359.762 1154.84 367.987 1149.98 375.355 1145 381.912 1139.7 387.906 1133.88 393.525 1127.4 398.812 1120.03 404.097 1115.78 406.757 1111.07 409.272 1105.96 411.791 1100.49 414.183 1088.81 418.699 1076.71 422.711 1064.74 426.158 1053.59 428.914 1048.5 430.045 1043.84 430.926 1039.68 431.555 1036.12 431.993ZM1157.79 355.705 1164 350 1162.46 358.29Z" fill="#37383A"/><path d="M1159 342.5C1159 337.806 1162.81 334 1167.5 334 1172.19 334 1176 337.806 1176 342.5 1176 347.194 1172.19 351 1167.5 351 1162.81 351 1159 347.194 1159 342.5Z" stroke="#37383A" stroke-width="2" stroke-miterlimit="8" stroke-dasharray="2 2" fill="#FFE4B4" fill-rule="evenodd"/><path d="M533.154 453.297C539.526 452.503 546.048 455.511 549.461 461.444L550.09 463.322 541.454 466.495C534.449 468.681 527.15 470.196 519.63 470.962L518.888 471 519.275 465.434C520.366 461.345 523.012 457.674 526.952 455.39 528.922 454.248 531.03 453.561 533.154 453.297ZM590.234 420.217C593.42 419.82 596.644 420.373 599.497 421.768L600.587 422.515 594.5 430.686C592.221 433.458 589.811 436.119 587.281 438.659L578.733 445.738 578.001 444.904C573.451 436.993 576.151 426.877 584.032 422.31 586.002 421.168 588.109 420.481 590.234 420.217ZM472.324 413.695C478.696 412.902 485.218 415.91 488.63 421.843 493.18 429.754 490.48 439.87 482.599 444.437 474.718 449.005 464.641 446.294 460.091 438.383 455.541 430.472 458.241 420.356 466.122 415.789 468.092 414.647 470.2 413.96 472.324 413.695ZM529.403 380.615C535.776 379.822 542.297 382.83 545.71 388.763 550.26 396.674 547.56 406.79 539.679 411.357 531.798 415.924 521.72 413.214 517.17 405.303 512.62 397.392 515.32 387.276 523.201 382.709 525.172 381.567 527.279 380.88 529.403 380.615ZM411.493 374.094C417.866 373.3 424.387 376.308 427.8 382.242 432.35 390.153 429.65 400.268 421.769 404.836 417.828 407.12 413.339 407.584 409.265 406.488L406.075 404.926 405.137 402.972C403.722 399.614 402.466 396.172 401.376 392.657L399 383.38 400.384 380.532C401.675 378.818 403.321 377.329 405.291 376.188 407.262 375.046 409.369 374.359 411.493 374.094ZM586.483 347.535C592.855 346.741 599.377 349.749 602.79 355.683 607.34 363.594 604.64 373.709 596.759 378.277 588.877 382.844 578.8 380.134 574.25 372.223 569.7 364.312 572.4 354.196 580.281 349.628 582.251 348.487 584.359 347.799 586.483 347.535ZM468.573 341.014C474.945 340.22 481.467 343.228 484.88 349.161 489.43 357.072 486.73 367.188 478.849 371.756 470.967 376.323 460.89 373.613 456.34 365.702 451.79 357.79 454.49 347.675 462.371 343.107 464.341 341.965 466.449 341.279 468.573 341.014ZM525.653 307.934C532.025 307.14 538.547 310.148 541.959 316.081 546.509 323.992 543.809 334.108 535.928 338.675 528.047 343.243 517.97 340.532 513.42 332.621 508.869 324.71 511.57 314.594 519.451 310.027 521.421 308.885 523.529 308.198 525.653 307.934ZM412.414 301.515 412.499 301.516C417.182 302.306 421.49 305.11 424.049 309.56 428.599 317.471 425.899 327.587 418.018 332.154 414.078 334.438 409.588 334.902 405.515 333.807L400.035 331.122 401.376 325.884C403.555 318.853 406.404 312.119 409.847 305.755ZM581.65 275.219 587.281 279.883C589.811 282.422 592.221 285.083 594.5 287.856L600.507 295.919 597.915 301.25C596.625 302.965 594.978 304.453 593.008 305.595 585.127 310.163 575.049 307.452 570.499 299.541 565.949 291.63 568.649 281.514 576.53 276.947ZM464.822 268.332C471.195 267.539 477.716 270.547 481.129 276.48 485.679 284.391 482.979 294.507 475.098 299.074 467.217 303.642 457.139 300.931 452.589 293.02 448.039 285.109 450.739 274.993 458.62 270.426 460.59 269.284 462.698 268.597 464.822 268.332ZM508.212 247 519.63 247.579C523.39 247.962 527.095 248.532 530.735 249.28L540.149 251.71 539.855 255.951C538.763 260.039 536.118 263.71 532.177 265.994 524.296 270.561 514.219 267.851 509.669 259.94 507.394 255.984 506.931 251.477 508.023 247.389Z" stroke="#37383A" stroke-width="2" stroke-miterlimit="8" fill="#BFC4CA" fill-rule="evenodd"/><path d="M396 359C396 297.144 446.368 247 508.5 247 570.632 247 621 297.144 621 359 621 420.856 570.632 471 508.5 471 446.368 471 396 420.856 396 359Z" stroke="#37383A" stroke-width="2" stroke-miterlimit="8" fill="none" fill-rule="evenodd"/><path d="M459 328C459 321.373 464.373 316 471 316 477.627 316 483 321.373 483 328 483 334.627 477.627 340 471 340 464.373 340 459 334.627 459 328Z" stroke="#37383A" stroke-width="2" stroke-miterlimit="8" stroke-dasharray="2 2" fill="#FFE4B4" fill-rule="evenodd"/><path d="M463 401.5C463 394.596 468.373 389 475 389 481.627 389 487 394.596 487 401.5 487 408.404 481.627 414 475 414 468.373 414 463 408.404 463 401.5Z" stroke="#37383A" stroke-width="2" stroke-miterlimit="8" stroke-dasharray="2 2" fill="#FFE4B4" fill-rule="evenodd"/><text font-family="Segoe UI,Segoe UI_MSFontService,sans-serif" font-weight="600" font-size="23" transform="translate(454.967 506)">Interception<tspan font-style="italic" font-weight="300" x="-6.28" y="27">Large particles</tspan></text><path d="M371.985 349 409.985 348.438 413.62 348.19 416.88 347.579 416.729 347.62 422.729 345.495 422.571 345.567 427.883 342.567 432.802 339.118 437.855 335.499 443.496 332.199C443.547 332.169 443.6 332.144 443.655 332.124L451.121 329.384 451.81 331.261 444.345 334.001 444.504 333.926 439.02 337.126 433.948 340.757 428.867 344.308 423.554 347.308C423.504 347.337 423.451 347.361 423.396 347.38L417.396 349.505C417.347 349.523 417.296 349.536 417.245 349.546L413.755 350.185 410.015 350.437 372.015 351ZM449.63 327.973 458 329 450.688 333.201Z" fill="#37383A"/><path d="M354 350.5C354 343.596 359.596 338 366.5 338 373.404 338 379 343.596 379 350.5 379 357.404 373.404 363 366.5 363 359.596 363 354 357.404 354 350.5Z" stroke="#37383A" stroke-width="2" stroke-miterlimit="8" fill="#FFBB43" fill-rule="evenodd"/><path d="M376.971 427 417.596 425.813 420.132 425.507 419.927 425.554 422.489 424.679 424.937 423.476 427.474 421.9 432.571 417.9 437.838 413.25 443.356 408.61 449.1 404.44 452.197 402.691C452.249 402.662 452.303 402.638 452.358 402.618L455.193 401.63 455.851 403.519 453.017 404.507 453.178 404.434 450.275 406.06 444.644 410.14 439.162 414.75 433.804 419.475 428.526 423.6 425.813 425.274 423.136 426.571 420.573 427.446C420.507 427.469 420.438 427.485 420.368 427.493L417.654 427.812 377.029 429ZM453.597 400.298 462 401 454.856 405.481Z" fill="#37383A"/><path d="M354 427.5C354 420.596 359.596 415 366.5 415 373.404 415 379 420.596 379 427.5 379 434.404 373.404 440 366.5 440 359.596 440 354 434.404 354 427.5Z" stroke="#37383A" stroke-width="2" stroke-miterlimit="8" fill="#FFBB43" fill-rule="evenodd"/></g></svg>