<svg width="1014" height="692" viewBox="0 0 1014 692" xmlns="http://www.w3.org/2000/svg" xmlns:xlink="http://www.w3.org/1999/xlink" overflow="hidden"><defs><clipPath id="clip0"><rect x="-300" y="-1894" width="1014" height="692"/></clipPath></defs><g clip-path="url(#clip0)" transform="translate(300 1894)"><path d="M-127.306-1313.79C-267.596-1551.87-331.417-1783.07-269.852-1830.18-242.049-1851.46-191.571-1831.79-128.326-1775.02" stroke="#000000" stroke-width="11.3333" stroke-linecap="round" stroke-miterlimit="8" fill="none" fill-rule="evenodd"/><path d="M482.344 0.0930809C758.668-2.72141 990.876 57.304 1000.99 134.164 1005.56 168.875 963.333 202.808 882.588 229.305" stroke="#000000" stroke-width="11.3333" stroke-linecap="round" stroke-miterlimit="8" fill="none" fill-rule="evenodd" transform="matrix(0.498874 -0.866674 -0.866674 -0.498874 301.027 -895.713)"/><path d="M208-1886.5C335.53-1886.5 450.987-1848.5 534.561-1787.06L544.5-1779.4 544.5-1314.6 534.561-1306.94C450.987-1245.5 335.53-1207.5 208-1207.5 80.4698-1207.5-34.9871-1245.5-118.561-1306.94L-128.5-1314.6-128.5-1779.4-118.561-1787.06C-34.9871-1848.5 80.4698-1886.5 208-1886.5Z" stroke="#000000" stroke-width="11.3333" stroke-linecap="round" stroke-linejoin="round" stroke-miterlimit="10" fill="#F1435A" fill-rule="evenodd"/><path d="M-14.2105-1659.07C82.0336-1735.71 259.318-1749 381.766-1688.77 400.219-1679.69 416.789-1669.2 431.091-1657.56" stroke="#000000" stroke-width="11.3333" stroke-linecap="round" stroke-miterlimit="8" fill="none" fill-rule="evenodd"/><path d="M61.6951 68.6691C160.073-9.44664 341.144-22.9275 466.129 38.5588 484.861 47.7738 501.689 58.4066 516.229 70.2133" stroke="#000000" stroke-width="11.3333" stroke-linecap="round" stroke-miterlimit="8" fill="none" fill-rule="evenodd" transform="matrix(1 0 0 -1 -80.5001 -1373.5)"/><path d="M-17.5001-1550.5 434.204-1550.5" stroke="#000000" stroke-width="11.3333" stroke-linecap="round" stroke-miterlimit="8" fill="none" fill-rule="evenodd"/></g></svg>