<svg width="1649" height="1753" viewBox="0 0 1649 1753" xmlns="http://www.w3.org/2000/svg" xmlns:xlink="http://www.w3.org/1999/xlink" overflow="hidden"><defs><clipPath id="clip0"><rect x="-2303" y="-2848" width="1649" height="1753"/></clipPath><linearGradient x1="0" y1="95.7884" x2="539.862" y2="95.7884" gradientUnits="userSpaceOnUse" spreadMethod="reflect" id="fill1"><stop offset="0" stop-color="#BFBFBF" stop-opacity="0"/><stop offset="0.00657895" stop-color="#BFBFBF" stop-opacity="0.00394737"/><stop offset="0.0131579" stop-color="#BFBFBF" stop-opacity="0.00789474"/><stop offset="0.0197368" stop-color="#BFBFBF" stop-opacity="0.0118421"/><stop offset="0.0263158" stop-color="#BFBFBF" stop-opacity="0.0157895"/><stop offset="0.0328947" stop-color="#BFBFBF" stop-opacity="0.0197368"/><stop offset="0.0394737" stop-color="#BFBFBF" stop-opacity="0.0236842"/><stop offset="0.0460526" stop-color="#BFBFBF" stop-opacity="0.0276316"/><stop offset="0.0526316" stop-color="#BFBFBF" stop-opacity="0.031579"/><stop offset="0.0592105" stop-color="#BFBFBF" stop-opacity="0.0355263"/><stop offset="0.0657895" stop-color="#BFBFBF" stop-opacity="0.0394737"/><stop offset="0.0723684" stop-color="#BFBFBF" stop-opacity="0.0434211"/><stop offset="0.0789474" stop-color="#BFBFBF" stop-opacity="0.0473684"/><stop offset="0.0855263" stop-color="#BFBFBF" stop-opacity="0.0513158"/><stop offset="0.0921053" stop-color="#BEBEBE" stop-opacity="0.0552632"/><stop offset="0.0986842" stop-color="#BFBFBF" stop-opacity="0.0592105"/><stop offset="0.105263" stop-color="#BFBFBF" stop-opacity="0.0631579"/><stop offset="0.111842" stop-color="#BFBFBF" stop-opacity="0.0671053"/><stop offset="0.118421" stop-color="#BFBFBF" stop-opacity="0.0710526"/><stop offset="0.125" stop-color="#BFBFBF" stop-opacity="0.075"/><stop offset="0.131579" stop-color="#BFBFBF" stop-opacity="0.0789474"/><stop offset="0.138158" stop-color="#BEBEBE" stop-opacity="0.0828947"/><stop offset="0.144737" stop-color="#BFBFBF" stop-opacity="0.0868421"/><stop offset="0.151316" stop-color="#BFBFBF" stop-opacity="0.0907895"/><stop offset="0.157895" stop-color="#BFBFBF" stop-opacity="0.0947368"/><stop offset="0.164474" stop-color="#BFBFBF" stop-opacity="0.0986842"/><stop offset="0.171053" stop-color="#BFBFBF" stop-opacity="0.102632"/><stop offset="0.177632" stop-color="#BFBFBF" stop-opacity="0.106579"/><stop offset="0.184211" stop-color="#BFBFBF" stop-opacity="0.110526"/><stop offset="0.190789" stop-color="#BFBFBF" stop-opacity="0.114474"/><stop offset="0.197368" stop-color="#BFBFBF" stop-opacity="0.118421"/><stop offset="0.203947" stop-color="#BFBFBF" stop-opacity="0.122368"/><stop offset="0.210526" stop-color="#BFBFBF" stop-opacity="0.126316"/><stop offset="0.217105" stop-color="#BFBFBF" stop-opacity="0.130263"/><stop offset="0.223684" stop-color="#BFBFBF" stop-opacity="0.134211"/><stop offset="0.230263" stop-color="#BFBFBF" stop-opacity="0.138158"/><stop offset="0.236842" stop-color="#BFBFBF" stop-opacity="0.142105"/><stop offset="0.243421" stop-color="#BFBFBF" stop-opacity="0.146053"/><stop offset="0.25" stop-color="#BFBFBF" stop-opacity="0.15"/><stop offset="0.256579" stop-color="#BFBFBF" stop-opacity="0.153947"/><stop offset="0.263158" stop-color="#BFBFBF" stop-opacity="0.157895"/><stop offset="0.269737" stop-color="#BFBFBF" stop-opacity="0.161842"/><stop offset="0.276316" stop-color="#BFBFBF" stop-opacity="0.165789"/><stop offset="0.282895" stop-color="#BEBEBE" stop-opacity="0.169737"/><stop offset="0.289474" stop-color="#BFBFBF" stop-opacity="0.173684"/><stop offset="0.296053" stop-color="#BFBFBF" stop-opacity="0.177632"/><stop offset="0.302632" stop-color="#BFBFBF" stop-opacity="0.181579"/><stop offset="0.309211" stop-color="#BFBFBF" stop-opacity="0.185526"/><stop offset="0.315789" stop-color="#BFBFBF" stop-opacity="0.189474"/><stop offset="0.322368" stop-color="#BFBFBF" stop-opacity="0.193421"/><stop offset="0.328947" stop-color="#BEBEBE" stop-opacity="0.197368"/><stop offset="0.335526" stop-color="#BFBFBF" stop-opacity="0.201316"/><stop offset="0.342105" stop-color="#BFBFBF" stop-opacity="0.205263"/><stop offset="0.348684" stop-color="#BFBFBF" stop-opacity="0.209211"/><stop offset="0.355263" stop-color="#BFBFBF" stop-opacity="0.213158"/><stop offset="0.361842" stop-color="#BFBFBF" stop-opacity="0.217105"/><stop offset="0.368421" stop-color="#BFBFBF" stop-opacity="0.221053"/><stop offset="0.375" stop-color="#BFBFBF" stop-opacity="0.225"/><stop offset="0.381579" stop-color="#BFBFBF" stop-opacity="0.228947"/><stop offset="0.388158" stop-color="#BFBFBF" stop-opacity="0.232895"/><stop offset="0.394737" stop-color="#BFBFBF" stop-opacity="0.236842"/><stop offset="0.401316" stop-color="#BFBFBF" stop-opacity="0.240789"/><stop offset="0.407895" stop-color="#BFBFBF" stop-opacity="0.244737"/><stop offset="0.414474" stop-color="#BFBFBF" stop-opacity="0.248684"/><stop offset="0.421053" stop-color="#BEBEBE" stop-opacity="0.252632"/><stop offset="0.427632" stop-color="#BFBFBF" stop-opacity="0.256579"/><stop offset="0.434211" stop-color="#BFBFBF" stop-opacity="0.260526"/><stop offset="0.440789" stop-color="#BEBEBE" stop-opacity="0.264474"/><stop offset="0.447368" stop-color="#BFBFBF" stop-opacity="0.268421"/><stop offset="0.453947" stop-color="#BFBFBF" stop-opacity="0.272368"/><stop offset="0.460526" stop-color="#BFBFBF" stop-opacity="0.276316"/><stop offset="0.467105" stop-color="#BFBFBF" stop-opacity="0.280263"/><stop offset="0.473684" stop-color="#BFBFBF" stop-opacity="0.284211"/><stop offset="0.480263" stop-color="#BFBFBF" stop-opacity="0.288158"/><stop offset="0.486842" stop-color="#BFBFBF" stop-opacity="0.292105"/><stop offset="0.493421" stop-color="#BFBFBF" stop-opacity="0.296053"/><stop offset="0.5" stop-color="#BFBFBF" stop-opacity="0.3"/><stop offset="0.506579" stop-color="#BFBFBF" stop-opacity="0.303947"/><stop offset="0.513158" stop-color="#BFBFBF" stop-opacity="0.307895"/><stop offset="0.519737" stop-color="#BFBFBF" stop-opacity="0.311842"/><stop offset="0.526316" stop-color="#BFBFBF" stop-opacity="0.315789"/><stop offset="0.532895" stop-color="#BFBFBF" stop-opacity="0.319737"/><stop offset="0.539474" stop-color="#BFBFBF" stop-opacity="0.323684"/><stop offset="0.546053" stop-color="#BFBFBF" stop-opacity="0.327632"/><stop offset="0.552632" stop-color="#BFBFBF" stop-opacity="0.331579"/><stop offset="0.559211" stop-color="#BFBFBF" stop-opacity="0.335526"/><stop offset="0.565789" stop-color="#BFBFBF" stop-opacity="0.339474"/><stop offset="0.572368" stop-color="#BFBFBF" stop-opacity="0.343421"/><stop offset="0.578947" stop-color="#BFBFBF" stop-opacity="0.347368"/><stop offset="0.585526" stop-color="#BFBFBF" stop-opacity="0.351316"/><stop offset="0.592105" stop-color="#BFBFBF" stop-opacity="0.355263"/><stop offset="0.598684" stop-color="#BFBFBF" stop-opacity="0.359211"/><stop offset="0.605263" stop-color="#BFBFBF" stop-opacity="0.363158"/><stop offset="0.611842" stop-color="#BFBFBF" stop-opacity="0.367105"/><stop offset="0.618421" stop-color="#BFBFBF" stop-opacity="0.371053"/><stop offset="0.625" stop-color="#BFBFBF" stop-opacity="0.375"/><stop offset="0.631579" stop-color="#BFBFBF" stop-opacity="0.378947"/><stop offset="0.638158" stop-color="#BFBFBF" stop-opacity="0.382895"/><stop offset="0.644737" stop-color="#BFBFBF" stop-opacity="0.386842"/><stop offset="0.651316" stop-color="#BFBFBF" stop-opacity="0.39079"/><stop offset="0.657895" stop-color="#BFBFBF" stop-opacity="0.394737"/><stop offset="0.664474" stop-color="#BFBFBF" stop-opacity="0.398684"/><stop offset="0.671053" stop-color="#BFBFBF" stop-opacity="0.402632"/><stop offset="0.677632" stop-color="#BFBFBF" stop-opacity="0.406579"/><stop offset="0.684211" stop-color="#BFBFBF" stop-opacity="0.410526"/><stop offset="0.690789" stop-color="#BFBFBF" stop-opacity="0.414474"/><stop offset="0.697368" stop-color="#BFBFBF" stop-opacity="0.418421"/><stop offset="0.703947" stop-color="#BFBFBF" stop-opacity="0.422368"/><stop offset="0.710526" stop-color="#BFBFBF" stop-opacity="0.426316"/><stop offset="0.717105" stop-color="#BFBFBF" stop-opacity="0.430263"/><stop offset="0.723684" stop-color="#BFBFBF" stop-opacity="0.434211"/><stop offset="0.730263" stop-color="#BFBFBF" stop-opacity="0.438158"/><stop offset="0.736842" stop-color="#BFBFBF" stop-opacity="0.442105"/><stop offset="0.743421" stop-color="#BFBFBF" stop-opacity="0.446053"/><stop offset="0.75" stop-color="#BFBFBF" stop-opacity="0.45"/><stop offset="0.756579" stop-color="#BFBFBF" stop-opacity="0.453947"/><stop offset="0.763158" stop-color="#BFBFBF" stop-opacity="0.457895"/><stop offset="0.769737" stop-color="#BFBFBF" stop-opacity="0.461842"/><stop offset="0.776316" stop-color="#BFBFBF" stop-opacity="0.465789"/><stop offset="0.782895" stop-color="#BFBFBF" stop-opacity="0.469737"/><stop offset="0.789474" stop-color="#BFBFBF" stop-opacity="0.473684"/><stop offset="0.796053" stop-color="#BFBFBF" stop-opacity="0.477632"/><stop offset="0.802632" stop-color="#BFBFBF" stop-opacity="0.481579"/><stop offset="0.809211" stop-color="#BFBFBF" stop-opacity="0.485526"/><stop offset="0.815789" stop-color="#BFBFBF" stop-opacity="0.489474"/><stop offset="0.822368" stop-color="#BFBFBF" stop-opacity="0.493421"/><stop offset="0.828947" stop-color="#BFBFBF" stop-opacity="0.497368"/><stop offset="0.835526" stop-color="#BFBFBF" stop-opacity="0.501316"/><stop offset="0.842105" stop-color="#BFBFBF" stop-opacity="0.505263"/><stop offset="0.848684" stop-color="#BFBFBF" stop-opacity="0.509211"/><stop offset="0.855263" stop-color="#BFBFBF" stop-opacity="0.513158"/><stop offset="0.861842" stop-color="#BFBFBF" stop-opacity="0.517105"/><stop offset="0.868421" stop-color="#BFBFBF" stop-opacity="0.521053"/><stop offset="0.875" stop-color="#BFBFBF" stop-opacity="0.525"/><stop offset="0.881579" stop-color="#BFBFBF" stop-opacity="0.528947"/><stop offset="0.888158" stop-color="#BFBFBF" stop-opacity="0.532895"/><stop offset="0.894737" stop-color="#BFBFBF" stop-opacity="0.536842"/><stop offset="0.901316" stop-color="#BFBFBF" stop-opacity="0.540789"/><stop offset="0.907895" stop-color="#BFBFBF" stop-opacity="0.544737"/><stop offset="0.914474" stop-color="#BFBFBF" stop-opacity="0.548684"/><stop offset="0.921053" stop-color="#BFBFBF" stop-opacity="0.552632"/><stop offset="0.927632" stop-color="#BFBFBF" stop-opacity="0.556579"/><stop offset="0.934211" stop-color="#BFBFBF" stop-opacity="0.560526"/><stop offset="0.940789" stop-color="#BFBFBF" stop-opacity="0.564474"/><stop offset="0.947368" stop-color="#BFBFBF" stop-opacity="0.568421"/><stop offset="0.953947" stop-color="#BFBFBF" stop-opacity="0.572368"/><stop offset="0.960526" stop-color="#BFBFBF" stop-opacity="0.576316"/><stop offset="0.967105" stop-color="#BFBFBF" stop-opacity="0.580263"/><stop offset="0.973684" stop-color="#BFBFBF" stop-opacity="0.584211"/><stop offset="0.980263" stop-color="#BFBFBF" stop-opacity="0.588158"/><stop offset="0.986842" stop-color="#BFBFBF" stop-opacity="0.592105"/><stop offset="0.993421" stop-color="#BFBFBF" stop-opacity="0.596053"/><stop offset="1" stop-color="#BFBFBF" stop-opacity="0.6"/></linearGradient></defs><g clip-path="url(#clip0)" transform="translate(2303 2848)"><path d="M-1311.86-2104.47C-1206.59-2114.81-1101.33-2125.15-994.953-2164.18-888.576-2203.21-781.087-2270.92-673.597-2338.63" stroke="#000000" stroke-width="12" stroke-linecap="round" stroke-miterlimit="8" fill="none" fill-rule="evenodd"/><path d="M-1311.86-1631.22C-1205.84-1655.72-1099.82-1680.23-991.32-1758.91-882.825-1837.59-771.854-1970.45-660.883-2103.31" stroke="#000000" stroke-width="12" stroke-linecap="round" stroke-miterlimit="8" fill="none" fill-rule="evenodd"/><path d="M-1364.45-2708.11C-1343.05-2706.96-1326.63-2688.69-1327.77-2667.29L-1330.89-2314.56-1329.75-2314.5-1328.63-2290.59C-1325.84-2271.97-1321.03-2252.08-1314.14-2231.83-1303.81-2201.45-1290.25-2174.58-1275.52-2153.48L-1267.42-2143.2-1267.56-2140.51-1262.9-2134.52C-1259-2126.36-1257.08-2117.52-1257.57-2108.38-1257.81-2103.81-1258.65-2099.37-1260.01-2095.12L-1264.55-2085.33-1276.51-2066.17C-1287.36-2050.77-1297.63-2033.07-1306.64-2013.67-1315.65-1994.27-1322.54-1975.01-1327.31-1956.79L-1334.47-1910.51-1335.11-1838.26-1334.42-1823.57C-1331.63-1804.94-1326.83-1785.05-1319.93-1764.8-1309.6-1734.43-1296.04-1707.55-1281.31-1686.45L-1273.21-1676.18-1273.35-1673.48-1268.69-1667.49C-1264.79-1659.34-1262.87-1650.5-1263.36-1641.35-1263.6-1636.78-1264.44-1632.34-1265.81-1628.09L-1270.34-1618.3-1282.31-1599.14C-1293.16-1583.74-1303.42-1566.04-1312.43-1546.64-1321.44-1527.24-1328.34-1507.98-1333.1-1489.76L-1338.51-1454.82-1341.4-1128.52-1347.67-1117.32C-1355.39-1107-1366.59-1100.75-1378.71-1101.4-1389.48-1101.98-1398.94-1107.89-1405.54-1116.98L-1426.78-1139.4C-1442.23-1153.71-1459.65-1166.25-1478.86-1176.75L-1541.29-1198.52C-1786.84-1263.74-1972.32-1482.45-1983.53-1749.65L-1993.55-1988.58C-2002.18-2194.11-1905.64-2379.7-1751.74-2493.35L-1689.26-2542.41C-1623.9-2592.62-1544.69-2638-1454.72-2676.56L-1384.68-2703.7-1384.04-2703.26-1379.69-2705.87C-1374.95-2707.58-1369.79-2708.39-1364.45-2708.11Z" stroke="#000000" stroke-width="12" stroke-miterlimit="8" fill="#FFC300" fill-rule="evenodd"/><path d="M-1355.99-2846C-1398.68-2658.74-1331.01-2738.97-1362.83-2657.83-1394.66-2576.68-1494.46-2432.65-1546.94-2359.12-1599.41-2285.58-1667.45-2267.31-1677.68-2216.61-1687.91-2165.92-1636.32-2099.69-1608.31-2054.93-1580.29-2010.17-1498.91-2005.6-1509.58-1948.05-1520.26-1890.5-1576.73-1878.17-1576.29-1841.17-1575.84-1804.17-1514.92-1769.92-1506.92-1726.07-1498.91-1682.22-1536.27-1609.15-1528.26-1578.09-1520.26-1547.03-1467.78-1578.09-1458.89-1539.72-1449.99-1501.35-1491.8-1414.57-1474.9-1347.89-1458-1281.2-1425.98-1165.19-1357.5-1139.61-1289.02-1114.04-1174.28-1203.56-1064-1194.42" stroke="#000000" stroke-width="12" stroke-miterlimit="8" stroke-dasharray="36 12" fill="none" fill-rule="evenodd"/><path d="M-1757-1860C-1757-1885.41-1736.41-1906-1711-1906-1685.59-1906-1665-1885.41-1665-1860-1665-1834.59-1685.59-1814-1711-1814-1736.41-1814-1757-1834.59-1757-1860Z" stroke="#000000" stroke-width="12" stroke-miterlimit="8" fill="#FFFFFF" fill-rule="evenodd"/><path d="M-1698-1662C-1698-1687.41-1677.63-1708-1652.5-1708-1627.37-1708-1607-1687.41-1607-1662-1607-1636.59-1627.37-1616-1652.5-1616-1677.63-1616-1698-1636.59-1698-1662Z" stroke="#000000" stroke-width="12" stroke-miterlimit="8" fill="#FFFFFF" fill-rule="evenodd"/><path d="M-1897-1866.5C-1897-1883.9-1882.9-1898-1865.5-1898-1848.1-1898-1834-1883.9-1834-1866.5-1834-1849.1-1848.1-1835-1865.5-1835-1882.9-1835-1897-1849.1-1897-1866.5Z" stroke="#000000" stroke-width="12" stroke-miterlimit="8" fill="#FFFFFF" fill-rule="evenodd"/><path d="M-1783-2027C-1783-2047.99-1765.99-2065-1745-2065-1724.01-2065-1707-2047.99-1707-2027-1707-2006.01-1724.01-1989-1745-1989-1765.99-1989-1783-2006.01-1783-2027Z" stroke="#000000" stroke-width="12" stroke-miterlimit="8" fill="#FFFFFF" fill-rule="evenodd"/><path d="M-1930-2088C-1930-2113.41-1909.63-2134-1884.5-2134-1859.37-2134-1839-2113.41-1839-2088-1839-2062.59-1859.37-2042-1884.5-2042-1909.63-2042-1930-2062.59-1930-2088Z" stroke="#000000" stroke-width="12" stroke-miterlimit="8" fill="#FFFFFF" fill-rule="evenodd"/><path d="M-1813-1509C-1813-1526.12-1798.9-1540-1781.5-1540-1764.1-1540-1750-1526.12-1750-1509-1750-1491.88-1764.1-1478-1781.5-1478-1798.9-1478-1813-1491.88-1813-1509Z" stroke="#000000" stroke-width="12" stroke-miterlimit="8" fill="#FFFFFF" fill-rule="evenodd"/><path d="M-1666-1482.5C-1666-1515.91-1638.91-1543-1605.5-1543-1572.09-1543-1545-1515.91-1545-1482.5-1545-1449.09-1572.09-1422-1605.5-1422-1638.91-1422-1666-1449.09-1666-1482.5Z" stroke="#000000" stroke-width="12" stroke-miterlimit="8" fill="#FFFFFF" fill-rule="evenodd"/><path d="M-2201-1551C-2201-1562.6-2191.6-1572-2180-1572-2168.4-1572-2159-1562.6-2159-1551-2159-1539.4-2168.4-1530-2180-1530-2191.6-1530-2201-1539.4-2201-1551Z" stroke="#000000" stroke-width="12" stroke-miterlimit="8" fill="#FFFFFF" fill-rule="evenodd"/><path d="M-2259-1839.5C-2259-1856.9-2245.12-1871-2228-1871-2210.88-1871-2197-1856.9-2197-1839.5-2197-1822.1-2210.88-1808-2228-1808-2245.12-1808-2259-1822.1-2259-1839.5Z" stroke="#000000" stroke-width="12" stroke-miterlimit="8" fill="#FFFFFF" fill-rule="evenodd"/><path d="M0 35.734 444.074 35.734 444.074 0 539.862 95.7884 444.074 191.577 444.074 155.843 0 155.843Z" fill="url(#fill1)" fill-rule="evenodd" transform="matrix(-0.995301 0.0968296 0.0968296 0.995301 -1774.31 -1839.04)"/><path d="M-1859-1700.5C-1859-1712.37-1849.6-1722-1838-1722-1826.4-1722-1817-1712.37-1817-1700.5-1817-1688.63-1826.4-1679-1838-1679-1849.6-1679-1859-1688.63-1859-1700.5Z" stroke="#000000" stroke-width="12" stroke-miterlimit="8" fill="#FFFFFF" fill-rule="evenodd"/></g></svg>
