<svg width="1245" height="970" viewBox="0 0 1245 970" xmlns="http://www.w3.org/2000/svg" xmlns:xlink="http://www.w3.org/1999/xlink" overflow="hidden"><defs><clipPath id="clip0"><rect x="1450" y="-3051" width="1245" height="970"/></clipPath></defs><g clip-path="url(#clip0)" transform="translate(-1450 3051)"><path d="M118.462 18.1208C234.128-17.9514 384.261 1.45016 453.794 61.4554 497.682 99.3297 500.385 146.327 460.927 185.491" stroke="#000000" stroke-width="16.5" stroke-linecap="round" stroke-miterlimit="8" fill="none" fill-rule="evenodd" transform="matrix(-0.877673 -0.479261 -0.479261 0.877673 2699.79 -2875.03)"/><path d="M1744.2-2333.39C1539.42-2459.41 1417.31-2672.48 1471.45-2809.29 1515.21-2919.86 1663.33-2949.54 1834.46-2882.05" stroke="#000000" stroke-width="16.5" stroke-linecap="round" stroke-miterlimit="8" fill="none" fill-rule="evenodd"/><path d="M2296.96-2935.6C2385.59-2935.6 2474.23-2930.86 2561.79-2921.38L2586.41-2918.25 2587.16-2917.65C2682.52-2829.91 2714.84-2642.36 2657.3-2449.25 2621.89-2330.42 2559.14-2231.97 2486.33-2168.88L2460.32-2146.6C2354.57-2057.15 2130.09-2073.54 1919.78-2194.96 1859.69-2229.65 1806.45-2269.63 1761.63-2312.22L1747.89-2326.12 1760.67-2344.37C1819.98-2437.67 1855.61-2557.28 1855.61-2687.69 1855.61-2743.58 1849.07-2797.49 1836.92-2848.19L1825.28-2889.47 1837.38-2892.03C1986.73-2921.08 2141.84-2935.6 2296.96-2935.6Z" stroke="#000000" stroke-width="16.5" stroke-linecap="round" stroke-miterlimit="8" fill="#F1435A" fill-rule="evenodd"/><path d="M2112.59-2738.36C2267.65-2788.7 2478.03-2802.26 2664.82-2773.94" stroke="#000000" stroke-width="16.5" stroke-linecap="round" stroke-miterlimit="8" fill="none" fill-rule="evenodd"/><path d="M135.402 47.2805C273.114 10.2613 490.622-6.90905 701.895 2.56064" stroke="#000000" stroke-width="16.5" stroke-linecap="round" stroke-miterlimit="8" fill="none" fill-rule="evenodd" transform="matrix(1 0 0 -1 1967.5 -2512.5)"/><path d="M170.242 67.0846C312.334 11.6781 518.018-11.5814 714.831 5.50024" stroke="#000000" stroke-width="16.5" stroke-linecap="round" stroke-miterlimit="8" fill="none" fill-rule="evenodd" transform="matrix(1 0 0 -1 1900.5 -2346.5)"/><path d="M144.59 86.315C264.205 27.4174 440.659-4.29537 622.249 0.469125" stroke="#000000" stroke-width="16.5" stroke-linecap="round" stroke-miterlimit="8" fill="none" fill-rule="evenodd" transform="matrix(1 0 0 -1 1900.5 -2210.5)"/></g></svg>