<svg width="2534" height="1718" xmlns="http://www.w3.org/2000/svg" xmlns:xlink="http://www.w3.org/1999/xlink" overflow="hidden"><defs><clipPath id="clip0"><rect x="-801" y="-4384" width="2534" height="1718"/></clipPath></defs><g clip-path="url(#clip0)" transform="translate(801 4384)"><path d="M466.5-4367C786.936-4367 1077.04-4272.76 1287.03-4120.38L1312-4101.38 1312-2948.62 1287.03-2929.62C1077.04-2777.24 786.936-2683 466.5-2683 146.064-2683-144.036-2777.24-354.028-2929.62L-379-2948.62-379-4101.38-354.028-4120.38C-144.036-4272.76 146.064-4367 466.5-4367Z" stroke="#404040" stroke-width="33.75" stroke-miterlimit="8" fill="#F1435A" fill-rule="evenodd"/><path d="M-369.116-2934.95C-719.451-3529.48-878.824-4106.82-725.085-4224.47-655.653-4277.61-529.601-4228.48-371.663-4086.74" stroke="#404040" stroke-width="33.75" stroke-linecap="round" stroke-miterlimit="8" fill="none" fill-rule="evenodd"/><path d="M1204.51 0.232443C1894.56-6.79594 2474.43 143.1 2499.7 335.035 2511.11 421.717 2405.65 506.455 2204.01 572.623" stroke="#404040" stroke-width="33.75" stroke-linecap="round" stroke-miterlimit="8" fill="none" fill-rule="evenodd" transform="matrix(0.498874 -0.866674 -0.866674 -0.498874 700.523 -1890.91)"/><path d="M-87.9154-3799C152.948-3990.15 596.203-4023.1 902.122-3872.6 947.919-3850.07 989.068-3824.08 1024.63-3795.22" stroke="#404040" stroke-width="33.75" stroke-linecap="round" stroke-miterlimit="8" fill="none" fill-rule="evenodd"/><path d="M153.448 171.769C398.457-23.4282 849.834-57.3223 1161.63 96.0641 1208.66 119.203 1250.89 145.93 1287.34 175.626" stroke="#404040" stroke-width="33.75" stroke-linecap="round" stroke-miterlimit="8" fill="none" fill-rule="evenodd" transform="matrix(1 0 0 -1 -252 -3085)"/><path d="M-96-3526 1032-3526" stroke="#404040" stroke-width="33.75" stroke-linecap="round" stroke-miterlimit="8" fill="none" fill-rule="evenodd"/></g></svg>