<svg width="321" height="275" viewBox="0 0 321 275" xmlns="http://www.w3.org/2000/svg" xmlns:xlink="http://www.w3.org/1999/xlink" overflow="hidden"><defs><clipPath id="clip0"><rect x="1392" y="355" width="321" height="275"/></clipPath><linearGradient x1="0" y1="13.5005" x2="76.0888" y2="13.5005" gradientUnits="userSpaceOnUse" spreadMethod="reflect" id="fill1"><stop offset="0" stop-color="#7F7F7F" stop-opacity="0"/><stop offset="0.00990099" stop-color="#7F7F7F" stop-opacity="0.0039604"/><stop offset="0.019802" stop-color="#7F7F7F" stop-opacity="0.00792079"/><stop offset="0.029703" stop-color="#7F7F7F" stop-opacity="0.0118812"/><stop offset="0.039604" stop-color="#7F7F7F" stop-opacity="0.0158416"/><stop offset="0.049505" stop-color="#7F7F7F" stop-opacity="0.019802"/><stop offset="0.0594059" stop-color="#7E7E7E" stop-opacity="0.0237624"/><stop offset="0.0693069" stop-color="#7F7F7F" stop-opacity="0.0277228"/><stop offset="0.0792079" stop-color="#7F7F7F" stop-opacity="0.0316832"/><stop offset="0.0891089" stop-color="#7F7F7F" stop-opacity="0.0356436"/><stop offset="0.0990099" stop-color="#7F7F7F" stop-opacity="0.039604"/><stop offset="0.108911" stop-color="#7F7F7F" stop-opacity="0.0435644"/><stop offset="0.118812" stop-color="#7F7F7F" stop-opacity="0.0475248"/><stop offset="0.128713" stop-color="#7E7E7E" stop-opacity="0.0514852"/><stop offset="0.138614" stop-color="#7F7F7F" stop-opacity="0.0554455"/><stop offset="0.148515" stop-color="#7F7F7F" stop-opacity="0.0594059"/><stop offset="0.158416" stop-color="#7F7F7F" stop-opacity="0.0633663"/><stop offset="0.168317" stop-color="#7F7F7F" stop-opacity="0.0673267"/><stop offset="0.178218" stop-color="#7E7E7E" stop-opacity="0.0712871"/><stop offset="0.188119" stop-color="#7F7F7F" stop-opacity="0.0752475"/><stop offset="0.19802" stop-color="#7F7F7F" stop-opacity="0.0792079"/><stop offset="0.207921" stop-color="#7E7E7E" stop-opacity="0.0831683"/><stop offset="0.217822" stop-color="#7F7F7F" stop-opacity="0.0871287"/><stop offset="0.227723" stop-color="#7F7F7F" stop-opacity="0.0910891"/><stop offset="0.237624" stop-color="#7F7F7F" stop-opacity="0.0950495"/><stop offset="0.247525" stop-color="#7F7F7F" stop-opacity="0.0990099"/><stop offset="0.257426" stop-color="#7F7F7F" stop-opacity="0.10297"/><stop offset="0.267327" stop-color="#7F7F7F" stop-opacity="0.106931"/><stop offset="0.277228" stop-color="#7F7F7F" stop-opacity="0.110891"/><stop offset="0.287129" stop-color="#7F7F7F" stop-opacity="0.114851"/><stop offset="0.29703" stop-color="#7F7F7F" stop-opacity="0.118812"/><stop offset="0.306931" stop-color="#7F7F7F" stop-opacity="0.122772"/><stop offset="0.316832" stop-color="#7F7F7F" stop-opacity="0.126733"/><stop offset="0.326733" stop-color="#7F7F7F" stop-opacity="0.130693"/><stop offset="0.336634" stop-color="#7F7F7F" stop-opacity="0.134653"/><stop offset="0.346535" stop-color="#7F7F7F" stop-opacity="0.138614"/><stop offset="0.356436" stop-color="#7F7F7F" stop-opacity="0.142574"/><stop offset="0.366337" stop-color="#7F7F7F" stop-opacity="0.146535"/><stop offset="0.376238" stop-color="#7F7F7F" stop-opacity="0.150495"/><stop offset="0.386139" stop-color="#7F7F7F" stop-opacity="0.154455"/><stop offset="0.39604" stop-color="#7E7E7E" stop-opacity="0.158416"/><stop offset="0.405941" stop-color="#7E7E7E" stop-opacity="0.162376"/><stop offset="0.415842" stop-color="#7F7F7F" stop-opacity="0.166337"/><stop offset="0.425743" stop-color="#7F7F7F" stop-opacity="0.170297"/><stop offset="0.435644" stop-color="#7F7F7F" stop-opacity="0.174257"/><stop offset="0.445545" stop-color="#7E7E7E" stop-opacity="0.178218"/><stop offset="0.455446" stop-color="#7F7F7F" stop-opacity="0.182178"/><stop offset="0.465347" stop-color="#7F7F7F" stop-opacity="0.186139"/><stop offset="0.475248" stop-color="#7F7F7F" stop-opacity="0.190099"/><stop offset="0.485149" stop-color="#7F7F7F" stop-opacity="0.194059"/><stop offset="0.49505" stop-color="#7E7E7E" stop-opacity="0.19802"/><stop offset="0.504951" stop-color="#7E7E7E" stop-opacity="0.20198"/><stop offset="0.514852" stop-color="#7E7E7E" stop-opacity="0.205941"/><stop offset="0.524752" stop-color="#7E7E7E" stop-opacity="0.209901"/><stop offset="0.534653" stop-color="#7F7F7F" stop-opacity="0.213861"/><stop offset="0.544554" stop-color="#7F7F7F" stop-opacity="0.217822"/><stop offset="0.554455" stop-color="#7F7F7F" stop-opacity="0.221782"/><stop offset="0.564356" stop-color="#7E7E7E" stop-opacity="0.225743"/><stop offset="0.574257" stop-color="#7E7E7E" stop-opacity="0.229703"/><stop offset="0.584158" stop-color="#7F7F7F" stop-opacity="0.233663"/><stop offset="0.594059" stop-color="#7F7F7F" stop-opacity="0.237624"/><stop offset="0.60396" stop-color="#7F7F7F" stop-opacity="0.241584"/><stop offset="0.613861" stop-color="#7F7F7F" stop-opacity="0.245545"/><stop offset="0.623762" stop-color="#7E7E7E" stop-opacity="0.249505"/><stop offset="0.633663" stop-color="#7F7F7F" stop-opacity="0.253465"/><stop offset="0.643564" stop-color="#7E7E7E" stop-opacity="0.257426"/><stop offset="0.653465" stop-color="#7E7E7E" stop-opacity="0.261386"/><stop offset="0.663366" stop-color="#7F7F7F" stop-opacity="0.265347"/><stop offset="0.673267" stop-color="#7F7F7F" stop-opacity="0.269307"/><stop offset="0.683168" stop-color="#7F7F7F" stop-opacity="0.273267"/><stop offset="0.693069" stop-color="#7F7F7F" stop-opacity="0.277228"/><stop offset="0.70297" stop-color="#7F7F7F" stop-opacity="0.281188"/><stop offset="0.712871" stop-color="#7F7F7F" stop-opacity="0.285149"/><stop offset="0.722772" stop-color="#7F7F7F" stop-opacity="0.289109"/><stop offset="0.732673" stop-color="#7E7E7E" stop-opacity="0.293069"/><stop offset="0.742574" stop-color="#7E7E7E" stop-opacity="0.29703"/><stop offset="0.752475" stop-color="#7F7F7F" stop-opacity="0.30099"/><stop offset="0.762376" stop-color="#7F7F7F" stop-opacity="0.304951"/><stop offset="0.772277" stop-color="#7F7F7F" stop-opacity="0.308911"/><stop offset="0.782178" stop-color="#7E7E7E" stop-opacity="0.312871"/><stop offset="0.792079" stop-color="#7F7F7F" stop-opacity="0.316832"/><stop offset="0.80198" stop-color="#7E7E7E" stop-opacity="0.320792"/><stop offset="0.811881" stop-color="#7F7F7F" stop-opacity="0.324752"/><stop offset="0.821782" stop-color="#7F7F7F" stop-opacity="0.328713"/><stop offset="0.831683" stop-color="#7F7F7F" stop-opacity="0.332673"/><stop offset="0.841584" stop-color="#7F7F7F" stop-opacity="0.336634"/><stop offset="0.851485" stop-color="#7F7F7F" stop-opacity="0.340594"/><stop offset="0.861386" stop-color="#7E7E7E" stop-opacity="0.344554"/><stop offset="0.871287" stop-color="#7F7F7F" stop-opacity="0.348515"/><stop offset="0.881188" stop-color="#7F7F7F" stop-opacity="0.352475"/><stop offset="0.891089" stop-color="#7F7F7F" stop-opacity="0.356436"/><stop offset="0.90099" stop-color="#7F7F7F" stop-opacity="0.360396"/><stop offset="0.910891" stop-color="#7E7E7E" stop-opacity="0.364356"/><stop offset="0.920792" stop-color="#7E7E7E" stop-opacity="0.368317"/><stop offset="0.930693" stop-color="#7F7F7F" stop-opacity="0.372277"/><stop offset="0.940594" stop-color="#7E7E7E" stop-opacity="0.376238"/><stop offset="0.950495" stop-color="#7E7E7E" stop-opacity="0.380198"/><stop offset="0.960396" stop-color="#7F7F7F" stop-opacity="0.384158"/><stop offset="0.970297" stop-color="#7F7F7F" stop-opacity="0.388119"/><stop offset="0.980198" stop-color="#7F7F7F" stop-opacity="0.392079"/><stop offset="0.990099" stop-color="#7F7F7F" stop-opacity="0.39604"/><stop offset="1" stop-color="#7F7F7F" stop-opacity="0.4"/></linearGradient></defs><g clip-path="url(#clip0)" transform="translate(-1392 -355)"><path d="M1392 358.289C1392 356.472 1393.47 355 1395.29 355L1708.71 355C1710.53 355 1712 356.472 1712 358.289L1712 626.711C1712 628.527 1710.53 630 1708.71 630L1395.29 630C1393.47 630 1392 628.527 1392 626.711Z" fill="#FFFFFF" fill-rule="evenodd"/><text fill="#FFFFFF" font-family="Segoe UI,Segoe UI_MSFontService,sans-serif" font-weight="300" font-size="24" transform="translate(1546.55 501)">z</text><path d="M1569.19 478.734C1584.03 477.276 1598.87 475.818 1613.86 470.318 1628.85 464.817 1644 455.274 1659.15 445.731" stroke="#37383A" stroke-width="6" stroke-linecap="round" stroke-miterlimit="8" fill="none" fill-rule="evenodd"/><path d="M1569.19 545.434C1584.14 541.98 1599.08 538.527 1614.37 527.437 1629.66 516.348 1645.3 497.622 1660.94 478.897" stroke="#37383A" stroke-width="6" stroke-linecap="round" stroke-miterlimit="8" fill="none" fill-rule="evenodd"/><path d="M1561.78 393.656C1564.8 393.817 1567.11 396.393 1566.95 399.409L1566.51 449.123 1566.67 449.132 1566.83 452.501C1567.22 455.126 1567.9 457.93 1568.87 460.783 1570.33 465.064 1572.24 468.852 1574.32 471.826L1575.46 473.274 1575.44 473.655 1576.09 474.498C1576.64 475.648 1576.91 476.894 1576.85 478.183 1576.81 478.827 1576.69 479.452 1576.5 480.051L1575.86 481.431 1574.18 484.132C1572.65 486.302 1571.2 488.797 1569.93 491.531 1568.66 494.265 1567.69 496.98 1567.02 499.548L1566.01 506.07 1565.92 516.254 1566.01 518.324C1566.41 520.95 1567.08 523.753 1568.06 526.607 1569.51 530.888 1571.42 534.675 1573.5 537.65L1574.64 539.098 1574.62 539.478 1575.28 540.322C1575.83 541.471 1576.1 542.717 1576.03 544.006 1575.99 544.651 1575.88 545.276 1575.68 545.875L1575.05 547.255 1573.36 549.955C1571.83 552.125 1570.38 554.62 1569.11 557.354 1567.84 560.088 1566.87 562.803 1566.2 565.372L1565.44 570.296 1565.03 616.286 1564.15 617.864C1563.06 619.319 1561.48 620.199 1559.77 620.108 1558.25 620.026 1556.92 619.193 1555.99 617.911L1553 614.752C1550.82 612.734 1548.36 610.967 1545.66 609.487L1536.86 606.42C1502.25 597.227 1476.11 566.402 1474.53 528.742L1473.12 495.068C1471.9 466.099 1485.51 439.943 1507.2 423.924L1516 417.01C1525.21 409.933 1536.38 403.537 1549.06 398.102L1558.93 394.277 1559.02 394.339 1559.63 393.972C1560.3 393.73 1561.03 393.616 1561.78 393.656Z" stroke="#37383A" stroke-width="3" stroke-miterlimit="8" fill="#FFBB43" fill-rule="evenodd"/><path d="M1556.44 360C1550.4 386.334 1565.19 387.041 1561.73 400.85 1558.27 414.66 1543.11 432.516 1535.68 442.857 1528.26 453.198 1518.63 455.767 1517.19 462.897 1515.74 470.026 1523.04 479.34 1527 485.634 1530.96 491.929 1542.48 492.571 1540.97 500.664 1539.46 508.757 1531.47 510.491 1531.53 515.694 1531.59 520.896 1540.21 525.714 1541.34 531.88 1542.48 538.046 1537.19 548.323 1538.32 552.69 1539.46 557.058 1546.88 552.69 1548.14 558.086 1549.4 563.481 1543.48 575.685 1545.87 585.062 1548.26 594.44 1552.79 610.754 1562.48 614.351 1572.17 617.948 1588.4 605.359 1604 606.644" stroke="#37383A" stroke-width="2" stroke-miterlimit="8" stroke-dasharray="2 2" fill="none" fill-rule="evenodd"/><path d="M1508.5 513.5C1508.5 510.739 1510.74 508.5 1513.5 508.5 1516.26 508.5 1518.5 510.739 1518.5 513.5 1518.5 516.261 1516.26 518.5 1513.5 518.5 1510.74 518.5 1508.5 516.261 1508.5 513.5Z" stroke="#000000" stroke-width="1.33333" stroke-miterlimit="8" fill="#FFFFFF" fill-rule="evenodd"/><path d="M1516.5 541.5C1516.5 538.739 1518.74 536.5 1521.5 536.5 1524.26 536.5 1526.5 538.739 1526.5 541.5 1526.5 544.261 1524.26 546.5 1521.5 546.5 1518.74 546.5 1516.5 544.261 1516.5 541.5Z" stroke="#000000" stroke-width="1.33333" stroke-miterlimit="8" fill="#FFFFFF" fill-rule="evenodd"/><path d="M1493.5 536C1493.5 534.619 1494.4 533.5 1495.5 533.5 1496.6 533.5 1497.5 534.619 1497.5 536 1497.5 537.381 1496.6 538.5 1495.5 538.5 1494.4 538.5 1493.5 537.381 1493.5 536Z" stroke="#000000" stroke-width="1.33333" stroke-miterlimit="8" fill="#FFFFFF" fill-rule="evenodd"/><path d="M1488.5 513C1488.5 511.067 1490.07 509.5 1492 509.5 1493.93 509.5 1495.5 511.067 1495.5 513 1495.5 514.933 1493.93 516.5 1492 516.5 1490.07 516.5 1488.5 514.933 1488.5 513Z" stroke="#000000" stroke-width="1.33333" stroke-miterlimit="8" fill="#FFFFFF" fill-rule="evenodd"/><path d="M1505.5 490C1505.5 488.619 1506.4 487.5 1507.5 487.5 1508.6 487.5 1509.5 488.619 1509.5 490 1509.5 491.381 1508.6 492.5 1507.5 492.5 1506.4 492.5 1505.5 491.381 1505.5 490Z" stroke="#000000" stroke-width="1.33333" stroke-miterlimit="8" fill="#FFFFFF" fill-rule="evenodd"/><path d="M1484.5 477.5C1484.5 474.739 1486.74 472.5 1489.5 472.5 1492.26 472.5 1494.5 474.739 1494.5 477.5 1494.5 480.261 1492.26 482.5 1489.5 482.5 1486.74 482.5 1484.5 480.261 1484.5 477.5Z" stroke="#000000" stroke-width="1.33333" stroke-miterlimit="8" fill="#FFFFFF" fill-rule="evenodd"/><path d="M1499.5 563C1499.5 561.067 1501.29 559.5 1503.5 559.5 1505.71 559.5 1507.5 561.067 1507.5 563 1507.5 564.933 1505.71 566.5 1503.5 566.5 1501.29 566.5 1499.5 564.933 1499.5 563Z" stroke="#000000" stroke-width="1.33333" stroke-miterlimit="8" fill="#FFFFFF" fill-rule="evenodd"/><path d="M1521.5 567C1521.5 563.41 1524.63 560.5 1528.5 560.5 1532.37 560.5 1535.5 563.41 1535.5 567 1535.5 570.59 1532.37 573.5 1528.5 573.5 1524.63 573.5 1521.5 570.59 1521.5 567Z" stroke="#000000" stroke-width="1.33333" stroke-miterlimit="8" fill="#FFFFFF" fill-rule="evenodd"/><path d="M1444.5 557C1444.5 555.619 1445.62 554.5 1447 554.5 1448.38 554.5 1449.5 555.619 1449.5 557 1449.5 558.381 1448.38 559.5 1447 559.5 1445.62 559.5 1444.5 558.381 1444.5 557Z" stroke="#000000" stroke-width="1.33333" stroke-miterlimit="8" fill="#FFFFFF" fill-rule="evenodd"/><path d="M1437.5 517C1437.5 515.067 1439.07 513.5 1441 513.5 1442.93 513.5 1444.5 515.067 1444.5 517 1444.5 518.933 1442.93 520.5 1441 520.5 1439.07 520.5 1437.5 518.933 1437.5 517Z" stroke="#000000" stroke-width="1.33333" stroke-miterlimit="8" fill="#FFFFFF" fill-rule="evenodd"/><path d="M0 5.03639 62.5883 5.03639 62.5883 0 76.0888 13.5005 62.5883 27.0011 62.5883 21.9647 0 21.9647Z" fill="url(#fill1)" fill-rule="evenodd" transform="matrix(-0.995301 0.0968296 0.0968296 0.995301 1504.02 516.144)"/></g></svg>
