<svg width="640" height="768" xmlns="http://www.w3.org/2000/svg" xmlns:xlink="http://www.w3.org/1999/xlink" overflow="hidden"><defs><clipPath id="clip0"><rect x="-5044" y="961" width="640" height="768"/></clipPath></defs><g clip-path="url(#clip0)" transform="translate(5044 -961)"><path d="M-4716.53 1250.88C-4667.07 1246.02-4617.61 1241.16-4567.63 1222.82-4517.65 1204.48-4467.14 1172.67-4416.64 1140.85" stroke="#000000" stroke-width="12" stroke-linecap="round" stroke-miterlimit="8" fill="none" fill-rule="evenodd"/><path d="M-4716.53 1473.24C-4666.72 1461.72-4616.9 1450.21-4565.92 1413.24-4514.95 1376.27-4462.81 1313.84-4410.66 1251.42" stroke="#000000" stroke-width="12" stroke-linecap="round" stroke-miterlimit="8" fill="none" fill-rule="evenodd"/><path d="M-4741.24 967.245C-4731.19 967.782-4723.47 976.368-4724.01 986.422L-4725.48 1152.16-4724.94 1152.19-4724.42 1163.42C-4723.1 1172.17-4720.85 1181.52-4717.61 1191.03-4712.75 1205.3-4706.38 1217.93-4699.46 1227.85L-4695.65 1232.67-4695.72 1233.94-4693.53 1236.75C-4691.7 1240.59-4690.8 1244.74-4691.03 1249.04-4691.14 1251.19-4691.53 1253.27-4692.18 1255.27L-4694.31 1259.87-4699.93 1268.87C-4705.03 1276.1-4709.85 1284.42-4714.08 1293.54-4718.31 1302.65-4721.56 1311.7-4723.79 1320.27L-4727.16 1342.01-4727.46 1375.96-4727.14 1382.86C-4725.83 1391.61-4723.57 1400.96-4720.33 1410.47-4715.47 1424.74-4709.1 1437.37-4702.18 1447.29L-4698.38 1452.11-4698.44 1453.38-4696.25 1456.19C-4694.42 1460.03-4693.52 1464.18-4693.75 1468.48-4693.86 1470.63-4694.25 1472.71-4694.9 1474.71L-4697.03 1479.31-4702.65 1488.31C-4707.75 1495.55-4712.57 1503.86-4716.8 1512.98-4721.04 1522.09-4724.28 1531.14-4726.52 1539.71L-4729.06 1556.12-4730.42 1709.44-4733.36 1714.7C-4736.99 1719.55-4742.25 1722.49-4747.94 1722.18-4753.01 1721.91-4757.45 1719.13-4760.55 1714.86L-4770.53 1704.33C-4777.79 1697.6-4785.98 1691.71-4795 1686.78L-4824.34 1676.55C-4939.71 1645.9-5026.86 1543.14-5032.13 1417.59L-5036.84 1305.33C-5040.89 1208.75-4995.53 1121.55-4923.22 1068.15L-4893.86 1045.1C-4863.15 1021.51-4825.93 1000.19-4783.66 982.066L-4750.75 969.313-4750.45 969.522-4748.41 968.296C-4746.18 967.492-4743.76 967.11-4741.24 967.245Z" stroke="#000000" stroke-width="12" stroke-miterlimit="8" fill-rule="evenodd"/></g></svg>