<svg width="366" height="459" xmlns="http://www.w3.org/2000/svg" xmlns:xlink="http://www.w3.org/1999/xlink" overflow="hidden"><defs><clipPath id="clip0"><rect x="-4774" y="972" width="366" height="459"/></clipPath></defs><g clip-path="url(#clip0)" transform="translate(4774 -972)"><path d="M-4566.36 1148.86C-4543.99 1149.69-4521.63 1150.51-4497.58 1143.75-4473.53 1137-4447.79 1122.66-4422.05 1108.33" stroke="#000000" stroke-width="16.6667" stroke-linecap="round" stroke-miterlimit="8" fill="none" fill-rule="evenodd"/><path d="M-4588.92 1274.85C-4565.69 1271.94-4542.45 1269.02-4515.94 1251.81-4489.43 1234.6-4459.66 1203.09-4429.89 1171.58" stroke="#000000" stroke-width="16.6667" stroke-linecap="round" stroke-miterlimit="8" fill="none" fill-rule="evenodd"/><path d="M-4551.57 985.659C-4545.93 986.984-4542.43 992.632-4543.75 998.274L-4561.41 1092.03-4561.1 1092.1-4561.95 1098.51C-4562.09 1103.61-4561.76 1109.13-4560.89 1114.85-4559.59 1123.43-4557.26 1131.23-4554.34 1137.55L-4552.68 1140.67-4552.85 1141.38-4551.89 1143.2C-4551.24 1145.56-4551.15 1148-4551.72 1150.41-4552 1151.62-4552.43 1152.76-4553 1153.82L-4554.68 1156.21-4558.77 1160.75C-4562.4 1164.33-4565.97 1168.55-4569.3 1173.28-4572.62 1178.02-4575.38 1182.82-4577.51 1187.44L-4581.63 1199.42-4585.24 1218.62-4585.76 1222.57C-4585.91 1227.66-4585.57 1233.18-4584.71 1238.9-4583.4 1247.48-4581.08 1255.28-4578.16 1261.6L-4576.49 1264.72-4576.66 1265.44-4575.7 1267.25C-4575.06 1269.61-4574.97 1272.05-4575.53 1274.46-4575.81 1275.67-4576.25 1276.81-4576.82 1277.88L-4578.49 1280.27-4582.59 1284.8C-4586.21 1288.38-4589.79 1292.6-4593.11 1297.34-4596.44 1302.07-4599.19 1306.87-4601.33 1311.49L-4604.43 1320.54-4620.76 1407.27-4622.97 1409.95C-4625.52 1412.33-4628.79 1413.46-4631.99 1412.71-4634.83 1412.04-4637.07 1410.01-4638.39 1407.28L-4642.97 1400.3C-4646.4 1395.75-4650.44 1391.58-4655.06 1387.87L-4670.64 1379.1C-4732.9 1350.02-4771.84 1282.96-4762.09 1211.29L-4753.36 1147.21C-4745.85 1092.08-4711.3 1047.28-4664.91 1024.36L-4645.94 1014.28C-4626.15 1004.03-4602.9 995.727-4577.1 989.752L-4557.16 985.867-4557.02 986.015-4555.73 985.528C-4554.39 985.298-4552.98 985.328-4551.57 985.659Z" stroke="#000000" stroke-width="12" stroke-miterlimit="8" fill-rule="evenodd"/></g></svg>