<svg width="229" height="109" xmlns="http://www.w3.org/2000/svg" xmlns:xlink="http://www.w3.org/1999/xlink" overflow="hidden"><defs><clipPath id="clip0"><rect x="2997" y="179" width="229" height="109"/></clipPath></defs><g clip-path="url(#clip0)" transform="translate(-2997 -179)"><path d="M3224.5 264.202C3224.5 267.229 3222.05 269.682 3219.04 269.682L3169.42 271.9 3169.42 272.062 3166.07 272.4C3163.47 272.934 3160.71 273.762 3157.92 274.887 3153.72 276.574 3150.05 278.688 3147.19 280.926L3145.81 282.146 3145.43 282.146 3144.62 282.849C3143.5 283.459 3142.27 283.797 3140.98 283.797 3140.34 283.797 3139.71 283.713 3139.1 283.552L3137.69 282.986 3134.91 281.443C3132.66 280.029 3130.1 278.714 3127.3 277.59 3124.51 276.465 3121.75 275.637 3119.15 275.103L3112.59 274.441 3102.43 274.895 3100.36 275.103C3097.77 275.637 3095.01 276.465 3092.21 277.59 3088.02 279.276 3084.34 281.391 3081.49 283.628L3080.1 284.848 3079.72 284.848 3078.92 285.551C3077.8 286.162 3076.57 286.5 3075.28 286.5 3074.64 286.5 3074.01 286.416 3073.4 286.255L3071.99 285.689 3069.2 284.146C3066.96 282.732 3064.39 281.417 3061.6 280.292 3058.8 279.168 3056.04 278.34 3053.44 277.806L3048.49 277.306 3002.59 279.357 3000.97 278.558C2999.46 277.546 2998.5 276.014 2998.5 274.3 2998.5 272.776 2999.26 271.396 3000.49 270.398L3003.48 267.233C3005.38 264.946 3007.01 262.393 3008.34 259.605L3010.93 250.636C3018.26 215.508 3047.61 187.698 3085.1 184.103L3118.61 180.888C3147.44 178.123 3174.26 190.34 3191.4 211.192L3198.76 219.635C3206.31 228.476 3213.29 239.306 3219.39 251.707L3223.73 261.381 3223.67 261.474 3224.07 262.068C3224.35 262.724 3224.5 263.445 3224.5 264.202Z" stroke="#37383A" stroke-width="1.33333" stroke-miterlimit="8" fill="#581845" fill-rule="evenodd"/></g></svg>