<svg width="109" height="229" viewBox="0 0 109 229" xmlns="http://www.w3.org/2000/svg" xmlns:xlink="http://www.w3.org/1999/xlink" overflow="hidden"><defs><clipPath id="clip0"><rect x="2569" y="680" width="109" height="229"/></clipPath></defs><g clip-path="url(#clip0)" transform="translate(-2569 -680)"><path d="M2653.7 681C2656.73 681 2659.18 683.446 2659.18 686.463L2661.4 736.078 2661.56 736.078 2661.9 739.431C2662.43 742.029 2663.26 744.789 2664.39 747.584 2666.07 751.777 2668.19 755.453 2670.43 758.309L2671.65 759.693 2671.65 760.073 2672.35 760.88C2672.96 761.997 2673.3 763.226 2673.3 764.515 2673.3 765.16 2673.21 765.789 2673.05 766.397L2672.49 767.808 2670.94 770.592C2669.53 772.838 2668.21 775.404 2667.09 778.199 2665.97 780.994 2665.14 783.754 2664.6 786.352L2663.94 792.912 2664.39 803.075 2664.6 805.135C2665.14 807.733 2665.97 810.493 2667.09 813.288 2668.78 817.481 2670.89 821.157 2673.13 824.014L2674.35 825.397 2674.35 825.778 2675.05 826.585C2675.66 827.702 2676 828.93 2676 830.22 2676 830.865 2675.92 831.494 2675.75 832.102L2675.19 833.513 2673.65 836.297C2672.23 838.543 2670.92 841.108 2669.79 843.904 2668.67 846.699 2667.84 849.459 2667.31 852.057L2666.81 857.009 2668.86 902.907 2668.06 904.529C2667.05 906.038 2665.51 907 2663.8 907 2662.28 907 2660.9 906.24 2659.9 905.011L2656.73 902.019C2654.45 900.122 2651.89 898.49 2649.1 897.158L2640.14 894.567C2605.01 887.242 2577.2 857.886 2573.6 820.404L2570.39 786.888C2567.62 758.055 2579.84 731.238 2600.69 714.103L2609.14 706.736C2617.98 699.186 2628.81 692.211 2641.21 686.113L2650.88 681.771 2650.97 681.829 2651.57 681.429C2652.22 681.153 2652.95 681 2653.7 681Z" stroke="#37383A" stroke-width="2" stroke-miterlimit="8" fill="#DAF7A6" fill-rule="evenodd"/></g></svg>
