<svg width="109" height="230" viewBox="0 0 109 229" xmlns="http://www.w3.org/2000/svg" xmlns:xlink="http://www.w3.org/1999/xlink" overflow="hidden"><defs><clipPath id="clip0"><rect x="2347" y="620" width="109" height="230"/></clipPath></defs><g clip-path="url(#clip0)" transform="translate(-2347 -620)"><path d="M2431.91 622C2434.91 622 2437.34 624.446 2437.34 627.463L2439.54 677.078 2439.7 677.078 2440.03 680.431C2440.56 683.029 2441.38 685.789 2442.5 688.584 2444.17 692.777 2446.26 696.453 2448.48 699.309L2449.69 700.693 2449.69 701.073 2450.38 701.88C2450.99 702.997 2451.32 704.226 2451.32 705.515 2451.32 706.16 2451.24 706.789 2451.08 707.397L2450.52 708.808 2448.99 711.592C2447.59 713.838 2446.29 716.404 2445.17 719.199 2444.06 721.994 2443.24 724.754 2442.71 727.352L2442.05 733.912 2442.5 744.075 2442.71 746.135C2443.24 748.733 2444.06 751.493 2445.17 754.288 2446.84 758.481 2448.94 762.157 2451.16 765.014L2452.36 766.397 2452.36 766.778 2453.06 767.585C2453.67 768.702 2454 769.93 2454 771.22 2454 771.865 2453.92 772.494 2453.76 773.102L2453.2 774.513 2451.67 777.297C2450.27 779.543 2448.96 782.108 2447.85 784.904 2446.74 787.699 2445.92 790.459 2445.39 793.057L2444.89 798.009 2446.92 843.907 2446.13 845.529C2445.13 847.038 2443.61 848 2441.91 848 2440.41 848 2439.04 847.24 2438.05 846.011L2434.91 843.019C2432.65 841.122 2430.12 839.49 2427.36 838.158L2418.47 835.567C2383.68 828.242 2356.13 798.886 2352.57 761.404L2349.38 727.888C2346.65 699.055 2358.75 672.238 2379.4 655.103L2387.77 647.736C2396.52 640.186 2407.25 633.211 2419.53 627.113L2429.12 622.771 2429.21 622.829 2429.8 622.429C2430.45 622.153 2431.16 622 2431.91 622Z" stroke="#37383A" stroke-width="2" stroke-miterlimit="8" fill="#581845" fill-rule="evenodd"/></g></svg>
