<svg width="231" height="110" viewBox="0 0 231 110" xmlns="http://www.w3.org/2000/svg" xmlns:xlink="http://www.w3.org/1999/xlink" overflow="hidden"><defs><clipPath id="clip0"><rect x="-323" y="-175" width="231" height="110"/></clipPath></defs><g clip-path="url(#clip0)" transform="translate(323 175)"><path d="M-93.5001-88.5879C-93.5001-85.5896-95.946-83.1589-98.963-83.1589L-148.578-80.9621-148.578-80.8022-151.931-80.4669C-154.529-79.9376-157.289-79.1176-160.084-78.0037-164.277-76.3328-167.953-74.2383-170.809-72.0219L-172.193-70.8135-172.573-70.8135-173.38-70.1171C-174.497-69.5119-175.726-69.1773-177.015-69.1773-177.66-69.1773-178.29-69.2609-178.898-69.4203L-180.308-69.9809-183.092-71.5092C-185.338-72.9103-187.904-74.2125-190.699-75.3263-193.494-76.4402-196.254-77.2603-198.852-77.7896L-205.412-78.4456-215.575-77.9956-217.635-77.7896C-220.233-77.2603-222.993-76.4402-225.789-75.3263-229.981-73.6555-233.658-71.561-236.514-69.3446L-237.898-68.1361-238.278-68.1361-239.085-67.4398C-240.202-66.8346-241.43-66.5-242.72-66.5-243.365-66.5-243.994-66.5836-244.602-66.743L-246.013-67.3036-248.797-68.8319C-251.043-70.233-253.609-71.5352-256.404-72.649-259.199-73.7629-261.959-74.583-264.557-75.1122L-269.509-75.6075-315.407-73.5753-317.029-74.3671C-318.538-75.3697-319.5-76.8869-319.5-78.5851-319.5-80.0946-318.74-81.4611-317.511-82.4503L-314.519-85.5851C-312.622-87.8507-310.99-90.3793-309.658-93.1414L-307.067-102.026C-299.742-136.822-270.386-164.37-232.904-167.931L-199.388-171.116C-170.555-173.855-143.738-161.752-126.603-141.098L-119.236-132.734C-111.686-123.977-104.711-113.248-98.6133-100.965L-94.2711-91.3818-94.3289-91.29-93.9294-90.7011C-93.653-90.0516-93.5001-89.3375-93.5001-88.5879Z" stroke="#37383A" stroke-width="3" stroke-miterlimit="8" fill="#FFC300" fill-rule="evenodd"/></g></svg>
