<svg width="231" height="110" viewBox="0 0 231 110" xmlns="http://www.w3.org/2000/svg" xmlns:xlink="http://www.w3.org/1999/xlink" overflow="hidden"><defs><clipPath id="clip0"><rect x="-323" y="-104" width="231" height="110"/></clipPath></defs><g clip-path="url(#clip0)" transform="translate(323 104)"><path d="M-93.5001-17.7982C-93.5001-14.7713-95.946-12.3175-98.963-12.3175L-148.578-10.0997-148.578-9.93832-151.931-9.59982C-154.529-9.06552-157.289-8.23765-160.084-7.11313-164.277-5.4264-167.953-3.3119-170.809-1.07439L-172.193 0.145546-172.573 0.145546-173.38 0.848564C-174.497 1.45948-175.726 1.79727-177.015 1.79727-177.66 1.79727-178.29 1.71286-178.898 1.55199L-180.308 0.986015-183.092-0.556824C-185.338-1.97125-187.904-3.28584-190.699-4.4103-193.494-5.53482-196.254-6.36269-198.852-6.89699L-205.412-7.55928-215.575-7.10503-217.635-6.89699C-220.233-6.36269-222.993-5.53482-225.789-4.4103-229.981-2.72357-233.658-0.609077-236.514 1.62843L-237.898 2.84837-238.278 2.84837-239.085 3.55139C-240.202 4.16231-241.43 4.5001-242.72 4.5001-243.365 4.5001-243.994 4.41569-244.602 4.25483L-246.013 3.68884-248.797 2.146C-251.043 0.731575-253.609-0.583008-256.404-1.70747-259.199-2.832-261.959-3.65987-264.557-4.19417L-269.509-4.69418-315.407-2.64258-317.029-3.44196C-318.538-4.4541-319.5-5.98576-319.5-7.7001-319.5-9.22395-318.74-10.6035-317.511-11.6021L-314.519-14.7668C-312.622-17.0539-310.99-19.6067-309.658-22.3951L-307.067-31.3643C-299.742-66.4918-270.386-94.3024-232.904-97.8975L-199.388-101.112C-170.555-103.878-143.738-91.6596-126.603-70.808L-119.236-62.3646C-111.686-53.5245-104.711-42.6936-98.6133-30.2933L-94.2711-20.6187-94.3289-20.526-93.9294-19.9315C-93.653-19.2758-93.5001-18.5549-93.5001-17.7982Z" stroke="#37383A" stroke-width="3" stroke-miterlimit="8" fill="#DAF7A6" fill-rule="evenodd"/></g></svg>
