<svg width="230" height="109" xmlns="http://www.w3.org/2000/svg" xmlns:xlink="http://www.w3.org/1999/xlink" overflow="hidden"><defs><clipPath id="clip0"><rect x="2996" y="338" width="230" height="109"/></clipPath></defs><g clip-path="url(#clip0)" transform="translate(-2996 -338)"><path d="M3224 422.912C3224 425.91 3221.55 428.341 3218.54 428.341L3168.92 430.538 3168.92 430.698 3165.57 431.033C3162.97 431.562 3160.21 432.382 3157.42 433.496 3153.22 435.167 3149.55 437.262 3146.69 439.478L3145.31 440.687 3144.93 440.687 3144.12 441.383C3143 441.988 3141.77 442.323 3140.48 442.323 3139.84 442.323 3139.21 442.239 3138.6 442.08L3137.19 441.519 3134.41 439.991C3132.16 438.59 3129.6 437.288 3126.8 436.174 3124.01 435.06 3121.25 434.24 3118.65 433.71L3112.09 433.054 3101.93 433.504 3099.86 433.71C3097.27 434.24 3094.51 435.06 3091.71 436.174 3087.52 437.845 3083.84 439.939 3080.99 442.155L3079.6 443.364 3079.22 443.364 3078.42 444.06C3077.3 444.665 3076.07 445 3074.78 445 3074.14 445 3073.51 444.916 3072.9 444.757L3071.49 444.196 3068.7 442.668C3066.46 441.267 3063.89 439.965 3061.1 438.851 3058.3 437.737 3055.54 436.917 3052.94 436.388L3047.99 435.893 3002.09 437.925 3000.47 437.133C2998.96 436.13 2998 434.613 2998 432.915 2998 431.405 2998.76 430.039 2999.99 429.05L3002.98 425.915C3004.88 423.649 3006.51 421.121 3007.84 418.359L3010.43 409.474C3017.76 374.678 3047.11 347.13 3084.6 343.569L3118.11 340.384C3146.94 337.645 3173.76 349.748 3190.9 370.402L3198.26 378.766C3205.81 387.523 3212.79 398.252 3218.89 410.535L3223.23 420.118 3223.17 420.21 3223.57 420.799C3223.85 421.448 3224 422.163 3224 422.912Z" stroke="#37383A" stroke-width="2" stroke-miterlimit="8" fill="#FFC300" fill-rule="evenodd"/></g></svg>