<svg width="109" height="229" viewBox="0 0 109 229" xmlns="http://www.w3.org/2000/svg" xmlns:xlink="http://www.w3.org/1999/xlink" overflow="hidden"><defs><clipPath id="clip0"><rect x="2435" y="644" width="109" height="229"/></clipPath></defs><g clip-path="url(#clip0)" transform="translate(-2435 -644)"><path d="M2519.91 645C2522.91 645 2525.34 647.457 2525.34 650.487L2527.54 700.322 2527.7 700.322 2528.03 703.689C2528.56 706.299 2529.38 709.071 2530.5 711.878 2532.17 716.09 2534.26 719.782 2536.48 722.651L2537.69 724.041 2537.69 724.423 2538.38 725.233C2538.99 726.356 2539.32 727.59 2539.32 728.885 2539.32 729.532 2539.24 730.165 2539.08 730.775L2538.52 732.192 2536.99 734.988C2535.59 737.245 2534.29 739.821 2533.17 742.629 2532.06 745.437 2531.24 748.209 2530.71 750.818L2530.05 757.407 2530.5 767.615 2530.71 769.685C2531.24 772.294 2532.06 775.066 2533.17 777.874 2534.84 782.085 2536.94 785.778 2539.16 788.646L2540.36 790.036 2540.36 790.419 2541.06 791.229C2541.67 792.351 2542 793.585 2542 794.88 2542 795.528 2541.92 796.16 2541.76 796.771L2541.2 798.187 2539.67 800.984C2538.27 803.24 2536.96 805.817 2535.85 808.624 2534.74 811.432 2533.92 814.204 2533.39 816.814L2532.89 821.788 2534.92 867.889 2534.13 869.518C2533.13 871.034 2531.61 872 2529.91 872 2528.41 872 2527.04 871.237 2526.05 870.002L2522.91 866.997C2520.65 865.092 2518.12 863.452 2515.36 862.115L2506.47 859.512C2471.68 852.155 2444.13 822.669 2440.57 785.021L2437.38 751.356C2434.65 722.396 2446.75 695.46 2467.4 678.25L2475.77 670.85C2484.52 663.266 2495.25 656.26 2507.53 650.136L2517.12 645.774 2517.21 645.832 2517.8 645.431C2518.45 645.154 2519.16 645 2519.91 645Z" stroke="#37383A" stroke-width="2" stroke-miterlimit="8" fill="#FF5733" fill-rule="evenodd"/></g></svg>
