<svg width="231" height="111" viewBox="0 0 231 111" xmlns="http://www.w3.org/2000/svg" xmlns:xlink="http://www.w3.org/1999/xlink" overflow="hidden"><defs><clipPath id="clip0"><rect x="-323" y="-34" width="231" height="111"/></clipPath></defs><g clip-path="url(#clip0)" transform="translate(323 34)"><path d="M-93.5001 52.2018C-93.5001 55.2287-95.946 57.6825-98.963 57.6825L-148.578 59.9003-148.578 60.0617-151.931 60.4002C-154.529 60.9345-157.289 61.7624-160.084 62.8869-164.277 64.5736-167.953 66.6881-170.809 68.9256L-172.193 70.1455-172.573 70.1455-173.38 70.8486C-174.497 71.4595-175.726 71.7973-177.015 71.7973-177.66 71.7973-178.29 71.7129-178.898 71.552L-180.308 70.986-183.092 69.4432C-185.338 68.0287-187.904 66.7142-190.699 65.5897-193.494 64.4652-196.254 63.6373-198.852 63.103L-205.412 62.4407-215.575 62.895-217.635 63.103C-220.233 63.6373-222.993 64.4652-225.789 65.5897-229.981 67.2764-233.658 69.3909-236.514 71.6284L-237.898 72.8484-238.278 72.8484-239.085 73.5514C-240.202 74.1623-241.43 74.5001-242.72 74.5001-243.365 74.5001-243.994 74.4157-244.602 74.2548L-246.013 73.6888-248.797 72.146C-251.043 70.7316-253.609 69.417-256.404 68.2925-259.199 67.168-261.959 66.3401-264.557 65.8058L-269.509 65.3058-315.407 67.3574-317.029 66.558C-318.538 65.5459-319.5 64.0142-319.5 62.2999-319.5 60.776-318.74 59.3965-317.511 58.3979L-314.519 55.2332C-312.622 52.9461-310.99 50.3933-309.658 47.6049L-307.067 38.6357C-299.742 3.50816-270.386-24.3024-232.904-27.8975L-199.388-31.1121C-170.555-33.8775-143.738-21.6596-126.603-0.808023L-119.236 7.63541C-111.686 16.4755-104.711 27.3064-98.6133 39.7067L-94.2711 49.3813-94.3289 49.474-93.9294 50.0685C-93.653 50.7242-93.5001 51.4451-93.5001 52.2018Z" stroke="#37383A" stroke-width="3" stroke-miterlimit="8" fill="#581845" fill-rule="evenodd"/></g></svg>
