<svg width="230" height="109" xmlns="http://www.w3.org/2000/svg" xmlns:xlink="http://www.w3.org/1999/xlink" overflow="hidden"><defs><clipPath id="clip0"><rect x="2996" y="179" width="230" height="109"/></clipPath></defs><g clip-path="url(#clip0)" transform="translate(-2996 -179)"><path d="M3224 263.702C3224 266.729 3221.55 269.182 3218.54 269.182L3168.92 271.4 3168.92 271.562 3165.57 271.9C3162.97 272.434 3160.21 273.262 3157.42 274.387 3153.22 276.073 3149.55 278.188 3146.69 280.426L3145.31 281.645 3144.93 281.645 3144.12 282.348C3143 282.959 3141.77 283.297 3140.48 283.297 3139.84 283.297 3139.21 283.213 3138.6 283.052L3137.19 282.486 3134.41 280.943C3132.16 279.529 3129.6 278.214 3126.8 277.09 3124.01 275.965 3121.25 275.137 3118.65 274.603L3112.09 273.941 3101.93 274.395 3099.86 274.603C3097.27 275.137 3094.51 275.965 3091.71 277.09 3087.52 278.776 3083.84 280.891 3080.99 283.128L3079.6 284.348 3079.22 284.348 3078.42 285.051C3077.3 285.662 3076.07 286 3074.78 286 3074.14 286 3073.51 285.916 3072.9 285.755L3071.49 285.189 3068.7 283.646C3066.46 282.231 3063.89 280.917 3061.1 279.792 3058.3 278.668 3055.54 277.84 3052.94 277.306L3047.99 276.806 3002.09 278.857 3000.47 278.058C2998.96 277.046 2998 275.514 2998 273.8 2998 272.276 2998.76 270.896 2999.99 269.898L3002.98 266.733C3004.88 264.446 3006.51 261.893 3007.84 259.105L3010.43 250.136C3017.76 215.008 3047.11 187.198 3084.6 183.603L3118.11 180.388C3146.94 177.622 3173.76 189.84 3190.9 210.692L3198.26 219.135C3205.81 227.975 3212.79 238.806 3218.89 251.207L3223.23 260.881 3223.17 260.974 3223.57 261.568C3223.85 262.224 3224 262.945 3224 263.702Z" stroke="#37383A" stroke-width="2" stroke-miterlimit="8" fill="#581845" fill-rule="evenodd"/></g></svg>