<svg width="109" height="230" viewBox="0 0 109 229" xmlns="http://www.w3.org/2000/svg" xmlns:xlink="http://www.w3.org/1999/xlink" overflow="hidden"><defs><clipPath id="clip0"><rect x="2501" y="661" width="109" height="230"/></clipPath></defs><g clip-path="url(#clip0)" transform="translate(-2501 -661)"><path d="M2585.7 663C2588.73 663 2591.18 665.446 2591.18 668.463L2593.4 718.078 2593.56 718.078 2593.9 721.431C2594.43 724.029 2595.26 726.789 2596.39 729.584 2598.07 733.777 2600.19 737.453 2602.43 740.309L2603.65 741.693 2603.65 742.073 2604.35 742.88C2604.96 743.997 2605.3 745.226 2605.3 746.515 2605.3 747.16 2605.21 747.789 2605.05 748.397L2604.49 749.808 2602.94 752.592C2601.53 754.838 2600.21 757.404 2599.09 760.199 2597.97 762.994 2597.14 765.754 2596.6 768.352L2595.94 774.912 2596.39 785.075 2596.6 787.135C2597.14 789.733 2597.97 792.493 2599.09 795.288 2600.78 799.481 2602.89 803.157 2605.13 806.014L2606.35 807.397 2606.35 807.778 2607.05 808.585C2607.66 809.702 2608 810.93 2608 812.22 2608 812.865 2607.92 813.494 2607.75 814.102L2607.19 815.513 2605.65 818.297C2604.23 820.543 2602.92 823.108 2601.79 825.904 2600.67 828.699 2599.84 831.459 2599.31 834.057L2598.81 839.009 2600.86 884.907 2600.06 886.529C2599.05 888.038 2597.51 889 2595.8 889 2594.28 889 2592.9 888.24 2591.9 887.011L2588.73 884.019C2586.45 882.122 2583.89 880.49 2581.1 879.158L2572.14 876.567C2537.01 869.242 2509.2 839.886 2505.6 802.404L2502.39 768.888C2499.62 740.055 2511.84 713.238 2532.69 696.103L2541.14 688.736C2549.98 681.186 2560.81 674.211 2573.21 668.113L2582.88 663.771 2582.97 663.829 2583.57 663.429C2584.22 663.153 2584.95 663 2585.7 663Z" stroke="#37383A" stroke-width="2" stroke-miterlimit="8" fill="#FFC300" fill-rule="evenodd"/></g></svg>
