<svg width="230" height="110" xmlns="http://www.w3.org/2000/svg" xmlns:xlink="http://www.w3.org/1999/xlink" overflow="hidden"><defs><clipPath id="clip0"><rect x="2996" y="408" width="230" height="110"/></clipPath></defs><g clip-path="url(#clip0)" transform="translate(-2996 -408)"><path d="M3224 493.702C3224 496.729 3221.55 499.182 3218.54 499.182L3168.92 501.4 3168.92 501.562 3165.57 501.9C3162.97 502.434 3160.21 503.262 3157.42 504.387 3153.22 506.073 3149.55 508.188 3146.69 510.426L3145.31 511.645 3144.93 511.645 3144.12 512.348C3143 512.959 3141.77 513.297 3140.48 513.297 3139.84 513.297 3139.21 513.213 3138.6 513.052L3137.19 512.486 3134.41 510.943C3132.16 509.529 3129.6 508.214 3126.8 507.09 3124.01 505.965 3121.25 505.137 3118.65 504.603L3112.09 503.941 3101.93 504.395 3099.86 504.603C3097.27 505.137 3094.51 505.965 3091.71 507.09 3087.52 508.776 3083.84 510.891 3080.99 513.128L3079.6 514.348 3079.22 514.348 3078.42 515.051C3077.3 515.662 3076.07 516 3074.78 516 3074.14 516 3073.51 515.916 3072.9 515.755L3071.49 515.189 3068.7 513.646C3066.46 512.231 3063.89 510.917 3061.1 509.792 3058.3 508.668 3055.54 507.84 3052.94 507.306L3047.99 506.806 3002.09 508.857 3000.47 508.058C2998.96 507.046 2998 505.514 2998 503.8 2998 502.276 2998.76 500.896 2999.99 499.898L3002.98 496.733C3004.88 494.446 3006.51 491.893 3007.84 489.105L3010.43 480.136C3017.76 445.008 3047.11 417.198 3084.6 413.603L3118.11 410.388C3146.94 407.622 3173.76 419.84 3190.9 440.692L3198.26 449.135C3205.81 457.975 3212.79 468.806 3218.89 481.207L3223.23 490.881 3223.17 490.974 3223.57 491.568C3223.85 492.224 3224 492.945 3224 493.702Z" stroke="#37383A" stroke-width="2" stroke-miterlimit="8" fill="#DAF7A6" fill-rule="evenodd"/></g></svg>