<svg width="229" height="109" xmlns="http://www.w3.org/2000/svg" xmlns:xlink="http://www.w3.org/1999/xlink" overflow="hidden"><defs><clipPath id="clip0"><rect x="2997" y="338" width="229" height="109"/></clipPath></defs><g clip-path="url(#clip0)" transform="translate(-2997 -338)"><path d="M3224.5 423.412C3224.5 426.41 3222.05 428.841 3219.04 428.841L3169.42 431.038 3169.42 431.198 3166.07 431.533C3163.47 432.062 3160.71 432.883 3157.92 433.996 3153.72 435.667 3150.05 437.762 3147.19 439.978L3145.81 441.187 3145.43 441.187 3144.62 441.883C3143.5 442.488 3142.27 442.823 3140.98 442.823 3140.34 442.823 3139.71 442.739 3139.1 442.58L3137.69 442.019 3134.91 440.491C3132.66 439.09 3130.1 437.788 3127.3 436.674 3124.51 435.56 3121.75 434.74 3119.15 434.211L3112.59 433.554 3102.43 434.004 3100.36 434.211C3097.77 434.74 3095.01 435.56 3092.21 436.674 3088.02 438.345 3084.34 440.439 3081.49 442.656L3080.1 443.864 3079.72 443.864 3078.92 444.56C3077.8 445.165 3076.57 445.5 3075.28 445.5 3074.64 445.5 3074.01 445.416 3073.4 445.257L3071.99 444.696 3069.2 443.168C3066.96 441.767 3064.39 440.465 3061.6 439.351 3058.8 438.237 3056.04 437.417 3053.44 436.888L3048.49 436.393 3002.59 438.425 3000.97 437.633C2999.46 436.63 2998.5 435.113 2998.5 433.415 2998.5 431.906 2999.26 430.539 3000.49 429.55L3003.48 426.415C3005.38 424.149 3007.01 421.621 3008.34 418.859L3010.93 409.974C3018.26 375.178 3047.61 347.63 3085.1 344.069L3118.61 340.884C3147.44 338.145 3174.26 350.248 3191.4 370.902L3198.76 379.266C3206.31 388.023 3213.29 398.752 3219.39 411.035L3223.73 420.618 3223.67 420.71 3224.07 421.299C3224.35 421.948 3224.5 422.663 3224.5 423.412Z" stroke="#37383A" stroke-width="1.33333" stroke-miterlimit="8" fill="#FFC300" fill-rule="evenodd"/></g></svg>