<svg width="144" height="96" xmlns="http://www.w3.org/2000/svg" xmlns:xlink="http://www.w3.org/1999/xlink" overflow="hidden"><defs><clipPath id="clip0"><rect x="0" y="0" width="144" height="96"/></clipPath></defs><g clip-path="url(#clip0)"><rect x="0" y="0" width="144" height="96" fill="#FFFFFF"/><text fill="#36BC9B" font-family="Segoe UI,Segoe UI_MSFontService,sans-serif" font-weight="300" font-size="27" transform="translate(5.86142 91)">K<tspan fill="#FFBB43" x="14.8333" y="0">4</tspan><tspan fill="#4B89DC" x="29.5" y="0">x</tspan><tspan fill="#4B89DC" x="41.1667" y="0">4</tspan><tspan fill="#DB4453" x="63.1667" y="0">WDx4</tspan></text><path d="M6.5 70.5001C6.5 69.1194 6.50002 68.0001 6.50005 68.0001L13.5 68.0001C13.5 68.0001 13.5 66.8808 13.5 65.5001 13.5 66.8808 13.5 68.0001 13.5 68.0001L20.5 68.0001C20.5 68.0001 20.5 69.1194 20.5 70.5001" stroke="#000000" stroke-width="0.666667" stroke-miterlimit="8" fill="none" fill-rule="evenodd"/><path d="M21.5 70.5001C21.5 69.1194 21.5 68.0001 21.5 68.0001L28.5 68.0001C28.5 68.0001 28.5 66.8808 28.5 65.5001 28.5 66.8808 28.5 68.0001 28.5 68.0001L35.5 68.0001C35.5 68.0001 35.5 69.1194 35.5 70.5001" stroke="#000000" stroke-width="0.666667" stroke-miterlimit="8" fill="none" fill-rule="evenodd"/><path d="M36.5001 70.5001C36.5001 69.1193 36.5001 68.0001 36.5001 68.0001L49 68.0001C49 68.0001 49.0001 66.8808 49.0001 65.5001 49.0001 66.8808 49.0001 68.0001 49.0001 68.0001L61.5 68.0001C61.5 68.0001 61.5001 69.1193 61.5001 70.5001" stroke="#000000" stroke-width="0.666667" stroke-miterlimit="8" fill="none" fill-rule="evenodd"/><path d="M68.5 70.5001C68.5 69.1194 68.5 68.0001 68.5001 68.0001L103.5 68.0001C103.5 68.0001 103.5 66.8808 103.5 65.5001 103.5 66.8808 103.5 68.0001 103.5 68.0001L138.5 68.0001C138.5 68.0001 138.5 69.1194 138.5 70.5001" stroke="#000000" stroke-width="0.666667" stroke-miterlimit="8" fill="none" fill-rule="evenodd"/><text font-family="Segoe UI,Segoe UI_MSFontService,sans-serif" font-weight="300" font-size="11" transform="matrix(0.707107 -0.707107 0.707107 0.707107 12.3931 61)">Knitted<tspan x="11.0781" y="11.0781">Fourth</tspan><tspan x="44.1749" y="11.648">material</tspan><tspan x="24.5918" y="24.5918">Four layers</tspan><tspan x="63.978" y="49.8358">Laundered </tspan><tspan x="63.9069" y="63.9069">four times</tspan></text></g></svg>