<svg width="88" height="87" xmlns="http://www.w3.org/2000/svg" xmlns:xlink="http://www.w3.org/1999/xlink" overflow="hidden"><defs><clipPath id="clip0"><rect x="2049" y="270" width="88" height="87"/></clipPath></defs><g clip-path="url(#clip0)" transform="translate(-2049 -270)"><path d="M2054 316C2054 295.565 2070.34 279 2090.5 279 2110.66 279 2127 295.565 2127 316 2127 336.435 2110.66 353 2090.5 353 2070.34 353 2054 336.435 2054 316Z" stroke="#000000" stroke-width="7.66667" stroke-linecap="round" stroke-linejoin="round" stroke-miterlimit="10" fill="#FFFFFF" fill-rule="evenodd"/><path d="M2.67036-2.7502 13.7227 7.98125C15.2416 9.45605 15.2773 11.8829 13.8025 13.4018 12.3277 14.9207 9.90087 14.9565 8.38198 13.4817L-2.67036 2.7502C-4.18926 1.27541-4.225-1.15146-2.7502-2.67036-1.27541-4.18926 1.15146-4.225 2.67036-2.7502ZM16.3132-0.189518 24.8034 24.0833 0.291053 16.3117Z" transform="matrix(1 0 0 -1 2088 318.083)"/></g></svg>