<svg width="81" height="82" xmlns="http://www.w3.org/2000/svg" xmlns:xlink="http://www.w3.org/1999/xlink" overflow="hidden"><defs><clipPath id="clip0"><rect x="2050" y="275" width="81" height="82"/></clipPath></defs><g clip-path="url(#clip0)" transform="translate(-2050 -275)"><path d="M2054 316C2054 295.565 2070.34 279 2090.5 279 2110.66 279 2127 295.565 2127 316 2127 336.435 2110.66 353 2090.5 353 2070.34 353 2054 336.435 2054 316Z" fill="#FFFFFF" fill-rule="evenodd"/><path d="M2050 316C2050 293.909 2068.13 276 2090.5 276 2112.87 276 2131 293.909 2131 316 2131 338.091 2112.87 356 2090.5 356 2068.13 356 2050 338.091 2050 316ZM2058.24 316C2058.24 333.543 2072.68 347.765 2090.5 347.765 2108.32 347.765 2122.76 333.543 2122.76 316 2122.76 298.457 2108.32 284.235 2090.5 284.235 2072.68 284.235 2058.24 298.457 2058.24 316Z" fill="#E81F7B" fill-rule="evenodd"/><path d="M2085.39 321.399C2084.19 320.194 2084.19 318.242 2085.39 317.038L2085.71 316.905C2089.03 313.511 2092.36 310.116 2095.68 306.722L2090.05 301.089 2112.58 294.212 2105.7 316.743 2100.07 311.11 2089.99 321.186 2089.75 321.399C2088.55 322.603 2086.6 322.603 2085.39 321.399Z" fill="#E81F7B" fill-rule="evenodd"/></g></svg>