<svg width="83" height="82" xmlns="http://www.w3.org/2000/svg" xmlns:xlink="http://www.w3.org/1999/xlink" overflow="hidden"><defs><clipPath id="clip0"><rect x="2049" y="275" width="83" height="82"/></clipPath></defs><g clip-path="url(#clip0)" transform="translate(-2049 -275)"><path d="M2054 316C2054 295.565 2070.34 279 2090.5 279 2110.66 279 2127 295.565 2127 316 2127 336.435 2110.66 353 2090.5 353 2070.34 353 2054 336.435 2054 316Z" fill="#FFFFFF" fill-rule="evenodd"/><path d="M2050.5 316.5C2050.5 294.409 2068.63 276.5 2091 276.5 2113.37 276.5 2131.5 294.409 2131.5 316.5 2131.5 338.592 2113.37 356.5 2091 356.5 2068.63 356.5 2050.5 338.592 2050.5 316.5ZM2058.74 316.5C2058.74 334.043 2073.18 348.265 2091 348.265 2108.82 348.265 2123.26 334.043 2123.26 316.5 2123.26 298.957 2108.82 284.735 2091 284.735 2073.18 284.735 2058.74 298.957 2058.74 316.5Z" stroke="#000000" stroke-miterlimit="8" fill="#E81F7B" fill-rule="evenodd"/><path d="M2085.39 321.399C2084.19 320.194 2084.19 318.242 2085.39 317.038L2085.71 316.905C2089.03 313.511 2092.36 310.116 2095.68 306.722L2090.05 301.089 2112.58 294.212 2105.7 316.743 2100.07 311.11 2089.99 321.186 2089.75 321.399C2088.55 322.603 2086.6 322.603 2085.39 321.399Z" stroke="#000000" stroke-miterlimit="8" fill="#E81F7B" fill-rule="evenodd"/></g></svg>