<svg width="68" height="79" xmlns="http://www.w3.org/2000/svg" xmlns:xlink="http://www.w3.org/1999/xlink" overflow="hidden"><defs><clipPath id="clip0"><rect x="1890" y="277" width="68" height="79"/></clipPath></defs><g clip-path="url(#clip0)" transform="translate(-1890 -277)"><path d="M1897 348 1901.74 305 1945.26 305 1950 348Z" stroke="#E81F7B" stroke-width="14" stroke-linecap="round" stroke-linejoin="round" stroke-miterlimit="10" fill="#E81F7B" fill-rule="evenodd"/><path d="M1923.5 282.376C1919.01 282.376 1915.38 286.013 1915.38 290.5 1915.38 294.987 1919.01 298.624 1923.5 298.624 1927.99 298.624 1931.62 294.987 1931.62 290.5 1931.62 286.013 1927.99 282.376 1923.5 282.376ZM1923.5 278C1930.4 278 1936 283.596 1936 290.5 1936 297.404 1930.4 303 1923.5 303 1916.6 303 1911 297.404 1911 290.5 1911 283.596 1916.6 278 1923.5 278Z" fill="#E81F7B" fill-rule="evenodd"/></g></svg>