<svg width="70" height="69" viewBox="0 0 70 69" xmlns="http://www.w3.org/2000/svg" xmlns:xlink="http://www.w3.org/1999/xlink" overflow="hidden"><defs><clipPath id="clip0"><rect x="1968" y="286" width="70" height="69"/></clipPath></defs><g clip-path="url(#clip0)" transform="translate(-1968 -286)"><path d="M1993.83 307 2013.17 307C2015.84 307 2018 309.164 2018 311.833L2018 346 1989 346 1989 311.833C1989 309.164 1991.16 307 1993.83 307Z" fill="#FFFFFF" fill-rule="evenodd"/><path d="M2003 310.14C2001.56 310.14 2000.39 311.307 2000.39 312.746L2000.5 313.018C2000.46 317.031 2000.42 321.045 2000.37 325.059L1993.63 325.059 2003 342.633 2012.37 325.059 2005.63 325.059 2005.63 313.018C2005.62 312.927 2005.61 312.837 2005.61 312.746 2005.61 311.307 2004.44 310.14 2003 310.14ZM2003 289.982C2000.73 289.982 1998.89 291.82 1998.89 294.088 1998.89 296.356 2000.73 298.194 2003 298.194 2005.27 298.194 2007.11 296.356 2007.11 294.088 2007.11 291.82 2005.27 289.982 2003 289.982ZM2003 286C2007.47 286 2011.1 289.621 2011.1 294.088 2011.1 295.205 2010.87 296.269 2010.46 297.236L2009.27 299.008 2030.93 299.008 2037 354 1969 354 1975.07 299.008 1996.73 299.008 1995.54 297.236C1995.13 296.269 1994.9 295.205 1994.9 294.088 1994.9 289.621 1998.53 286 2003 286Z" fill="#E81F7B" fill-rule="evenodd"/></g></svg>
