<svg width="68" height="79" xmlns="http://www.w3.org/2000/svg" xmlns:xlink="http://www.w3.org/1999/xlink" overflow="hidden"><defs><clipPath id="clip0"><rect x="1890" y="277" width="68" height="79"/></clipPath></defs><g clip-path="url(#clip0)" transform="translate(-1890 -277)"><path d="M1897 348 1901.74 305 1945.26 305 1950 348Z" stroke="#000000" stroke-width="14" stroke-linecap="round" stroke-linejoin="round" stroke-miterlimit="10" fill-rule="evenodd"/><path d="M1924 282.876C1919.51 282.876 1915.88 286.513 1915.88 291 1915.88 295.487 1919.51 299.124 1924 299.124 1928.49 299.124 1932.12 295.487 1932.12 291 1932.12 286.513 1928.49 282.876 1924 282.876ZM1924 278.5C1930.9 278.5 1936.5 284.096 1936.5 291 1936.5 297.904 1930.9 303.5 1924 303.5 1917.1 303.5 1911.5 297.904 1911.5 291 1911.5 284.096 1917.1 278.5 1924 278.5Z" stroke="#000000" stroke-width="1.33333" stroke-miterlimit="8" fill-rule="evenodd"/></g></svg>