<svg width="70" height="71" xmlns="http://www.w3.org/2000/svg" xmlns:xlink="http://www.w3.org/1999/xlink" overflow="hidden"><defs><clipPath id="clip0"><rect x="1968" y="285" width="70" height="71"/></clipPath></defs><g clip-path="url(#clip0)" transform="translate(-1968 -285)"><path d="M1994.33 307.5 2013.67 307.5C2016.34 307.5 2018.5 309.664 2018.5 312.333L2018.5 346.5 1989.5 346.5 1989.5 312.333C1989.5 309.664 1991.66 307.5 1994.33 307.5Z" stroke="#9E507E" stroke-width="1.33333" stroke-miterlimit="8" fill="#FFFFFF" fill-rule="evenodd"/><path d="M2003.5 310.64C2002.06 310.64 2000.89 311.807 2000.89 313.246L2001 313.518C2000.96 317.531 2000.92 321.545 2000.87 325.559L1994.13 325.559 2003.5 343.133 2012.87 325.559 2006.13 325.559 2006.13 313.518C2006.12 313.427 2006.11 313.337 2006.11 313.246 2006.11 311.807 2004.94 310.64 2003.5 310.64ZM2003.5 290.482C2001.23 290.482 1999.39 292.32 1999.39 294.588 1999.39 296.856 2001.23 298.694 2003.5 298.694 2005.77 298.694 2007.61 296.856 2007.61 294.588 2007.61 292.32 2005.77 290.482 2003.5 290.482ZM2003.5 286.5C2007.97 286.5 2011.6 290.121 2011.6 294.588 2011.6 295.705 2011.37 296.769 2010.96 297.736L2009.77 299.508 2031.43 299.508 2037.5 354.5 1969.5 354.5 1975.57 299.508 1997.23 299.508 1996.04 297.736C1995.63 296.769 1995.4 295.705 1995.4 294.588 1995.4 290.121 1999.03 286.5 2003.5 286.5Z" stroke="#000000" stroke-miterlimit="8" fill="#E81F7B" fill-rule="evenodd"/></g></svg>