<svg width="68" height="78" xmlns="http://www.w3.org/2000/svg" xmlns:xlink="http://www.w3.org/1999/xlink" overflow="hidden"><defs><clipPath id="clip0"><rect x="1890" y="284" width="68" height="78"/></clipPath></defs><g clip-path="url(#clip0)" transform="translate(-1890 -284)"><path d="M1897 348 1901.74 305 1945.26 305 1950 348Z" stroke="#E81F7B" stroke-width="14" stroke-linecap="round" stroke-linejoin="round" stroke-miterlimit="10" fill="#E81F7B" fill-rule="evenodd"/><path d="M1924 289.801C1921.13 289.801 1918.8 292.128 1918.8 295 1918.8 297.872 1921.13 300.199 1924 300.199 1926.87 300.199 1929.2 297.872 1929.2 295 1929.2 292.128 1926.87 289.801 1924 289.801ZM1924 287C1928.42 287 1932 290.582 1932 295 1932 299.418 1928.42 303 1924 303 1919.58 303 1916 299.418 1916 295 1916 290.582 1919.58 287 1924 287Z" stroke="#E81F7B" stroke-width="3.66667" stroke-miterlimit="8" fill="#E81F7B" fill-rule="evenodd"/><path d="M1927 314 1927 328.785C1927 330.442 1925.66 331.785 1924 331.785 1922.34 331.785 1921 330.442 1921 328.785L1921 314C1921 312.343 1922.34 311 1924 311 1925.66 311 1927 312.343 1927 314ZM1933 325.785 1924 343.785 1915 325.785Z" fill="#FFFFFF"/></g></svg>